<?xml version="1.0" encoding="utf-8"?>
<!-- Generator: Adobe Illustrator 23.0.3, SVG Export Plug-In . SVG Version: 6.00 Build 0)  -->
<svg version="1.1" id="f61e7f2c-3df8-44b9-b514-d2b672d0e0d5"
	 xmlns="http://www.w3.org/2000/svg" xmlns:xlink="http://www.w3.org/1999/xlink" x="0px" y="0px" viewBox="0 0 1101 666.1"
	 style="enable-background:new 0 0 1101 666.1;" xml:space="preserve">
<style type="text/css">
	.st0{fill:#2F2E41;}
	.st1{fill:#FFB8B8;}
	.st2{fill:#D0CDE1;}
	.st3{fill:#3F3D56;}
	.st4{fill:#FFBF5A;}
	.st5{fill:#4285F4;}
	.st6{fill:#E34F26;}
	.st7{fill:#F7DF1E;}
	.st8{fill:#339933;}
	.st9{fill:#61DAFB;}
	.st10{fill:#007ACC;}
	.st11{fill:#DD0031;}
	.st12{fill:#1572B6;}
	.st13{fill:#FF7139;}
	.st14{fill:#FF7C00;}
	.st15{fill:#FDBE5A;}
	.st16{fill:#FDBE5A;stroke:#FDBE5A;stroke-width:3;stroke-miterlimit:10;}
	.st17{fill:none;stroke:#3F3D56;stroke-width:2;stroke-miterlimit:10;}
</style>
<path class="st0" d="M672.8,107v204.1c0,0.1,0,0.1-0.1,0.1h-4.1c0,0-0.1,0-0.1-0.1l-1.9-85.6c0.2,4.1,0.3,9.5,0,15.7
	c-0.2,3.3-0.9,14.1-4,27.5c-4,17.1-10.3,31.6-16.1,42.5c5.7,0-187.5,0-187.5,0c-0.1,0-0.1,0-0.1-0.1V108.3
	C459,47.3,509.6-2.4,570.6,0.2C627.5,2.7,672.8,49.5,672.8,107z"/>
<ellipse class="st1" cx="565" cy="137.5" rx="68.9" ry="75.5"/>
<path class="st1" d="M516.1,165.9c0,0,9.1,83.4-5.4,92.4s83.4,21.7,83.4,21.7s-14.5-90.6,21.7-114.2L516.1,165.9z"/>
<path class="st2" d="M603.1,243.8c0,0,27-12.6-11.9-8.1S518.8,223,518.8,223s-11.8-11.8-13.6,0.9s5.4,36.2-34.4,39.9
	s-76.1-7.2-90.6,19.9s12.5,148.6,12.5,148.6s14.3,82,29.2,108.7c12.7,22.7,218.3-4.7,218.3-4.7c9.6-14.3,20.6-33.6,29.5-57.9
	c7.6-20.8,11.6-39.7,13.8-55c1.6-33.3,3.2-66.5,4.8-99.8c0,0-7.2-39.9-58-29c0,0-32.6-7.2-30.8-23.6S603.1,243.8,603.1,243.8z"/>
<rect x="717.6" y="352" class="st3" width="189" height="2.3"/>
<path class="st0" d="M429,610.3c1.1-4.9,1.9-7.6,1.9-7.6l-0.6-4l-6-40.5l-2.5-17.1c21.7-9.1,27.2-50.7,27.2-50.7l0.8-0.5l3.7-2.2
	l0,0l13.3-8l0.3-0.2l5.4,3.6l10.9,7.3c38.2,28.1,77.2,27.6,101.2,23.2c14.7-2.7,23.8-6.9,23.8-6.9l26.4-8.8l0.8-0.3l0.8,0.1L652,500
	h0.3l1.3,0.2L650,525l-5.2,36c13.7,7.3,25.9,20.9,36.6,37.7c2.4,3.7,4.6,7.6,6.9,11.6c2.9,5.2,5.6,10.6,8.3,16.2
	c0.3,0.7,0.6,1.3,0.9,2c1,2.2,2,4.4,3,6.6H424.3c0.4-2.2,0.7-4.3,1.1-6.3c0-0.1,0-0.1,0-0.2c0.1-0.7,0.3-1.3,0.4-2
	C426.9,619.8,428.1,614.3,429,610.3z"/>
<path class="st0" d="M418.2,262c0,0,19.9,36.2,12.7,81.5s21.7,157.7,21.7,157.7l21.7-5.4c0,0-14.5-94.2-10.9-116
	c3.6-21.7,3.6-106.9-14.5-117.8S418.2,262,418.2,262z"/>
<path class="st0" d="M629,299.6l7.6,200.6l14.5,9.1c0,0,20.8-220.2,10-220.2H639c-5.5,0-10,4.5-10,10C629,299.3,629,299.5,629,299.6
	z"/>
<circle class="st4" cx="462.6" cy="487.6" r="9.1"/>
<circle class="st4" cx="643.8" cy="496.6" r="9.1"/>
<path class="st0" d="M497.5,49.3v72.8c9.8,1.2,30.8,2.4,54.3-7.6c28.6-12.2,43.4-33.6,48.5-41.7c1.1,23.8,18.4,42.4,32.7,49.4V49.3
	H497.5z"/>
<ellipse class="st1" cx="495.2" cy="129.7" rx="5.4" ry="10"/>
<ellipse class="st1" cx="634.8" cy="129.7" rx="5.4" ry="10"/>
<path class="st1" d="M683.5,547.9c0,0-81.3,20.6-74.9,47.6c6.4,27,89.5-24.4,89.5-24.4L683.5,547.9z"/>
<path class="st2" d="M670.1,309.1c0,0,197.5,157.7,161.3,195.7s-136.6,75.8-136.6,75.8l-11.3-37.5l62.7-65.5L694.8,450l-24.7-8.7
	V309.1z"/>
<path class="st1" d="M378.4,571.8l25.4,19.9c0,0,31.6,39.7,58.8,23.4s-38.9-57.8-38.9-57.8l-30.8-10.9L378.4,571.8z"/>
<path class="st2" d="M403.7,280.1l-25.3,7.6c0,0-175.8,130.1-183.1,166.3s34.4,56.2,34.4,56.2l157.7,74.3l16.3-43.5l-74.3-38
	c0,0,5.4-10.9-16.3-12.7s-25.4-25.4-25.4-25.4s53.2-47,80.6-43.4c29.1,3.7,32.9,10.8,32.9,10.8L403.7,280.1z"/>
<path class="st3" d="M764.6,616.5v6.1c0,1.7-0.3,3.3-0.9,4.9c-0.3,0.7-0.6,1.4-1,2c-2.4,4.1-6.8,6.6-11.5,6.6H304.6
	c-4.7,0-9.1-2.5-11.5-6.6c-0.4-0.6-0.7-1.3-1-2c-0.6-1.6-0.9-3.2-0.9-4.9v-6.1c0-7.4,6-13.4,13.4-13.4l0,0h25.7v-2.8
	c0-0.3,0.2-0.6,0.6-0.6l0,0h13.4c0.3,0,0.6,0.2,0.6,0.6l0,0v2.8h8.4v-2.8c0-0.3,0.2-0.6,0.6-0.6l0,0h13.4c0.3,0,0.6,0.2,0.6,0.6l0,0
	v2.8h8.4v-2.8c0-0.3,0.2-0.6,0.6-0.6l0,0h13.4c0.3,0,0.6,0.2,0.6,0.6l0,0v2.8h8.4v-2.8c0-0.3,0.2-0.6,0.6-0.6l0,0h13.4
	c0.3,0,0.6,0.2,0.6,0.6l0,0v2.8h8.4v-2.8c0-0.3,0.2-0.6,0.6-0.6l0,0h13.4c0.3,0,0.6,0.2,0.6,0.6l0,0v2.8h8.4v-2.8
	c0-0.3,0.2-0.6,0.6-0.6l0,0h13.4c0.3,0,0.6,0.2,0.6,0.6l0,0v2.8h8.4v-2.8c0-0.3,0.2-0.6,0.6-0.6l0,0h105.2c0.3,0,0.6,0.2,0.6,0.6
	l0,0v2.8h8.4v-2.8c0-0.3,0.2-0.6,0.6-0.6l0,0h13.4c0.3,0,0.6,0.3,0.6,0.6v2.8h8.4v-2.8c0-0.3,0.2-0.6,0.6-0.6l0,0h13.4
	c0.3,0,0.6,0.2,0.6,0.6l0,0v2.8h8.4v-2.8c0-0.3,0.2-0.6,0.6-0.6l0,0h13.4c0.3,0,0.6,0.2,0.6,0.6l0,0v2.8h8.4v-2.8
	c0-0.3,0.2-0.6,0.6-0.6l0,0h13.4c0.3,0,0.6,0.3,0.5,0.6v2.8h8.4v-2.8c0-0.3,0.2-0.6,0.6-0.6l0,0H689c0.3,0,0.6,0.2,0.6,0.6l0,0v2.8
	h8.4v-2.8c0-0.3,0.2-0.6,0.6-0.6l0,0H712c0.3,0,0.6,0.2,0.6,0.6l0,0v2.8h39.2C758.6,603,764.6,609.1,764.6,616.5L764.6,616.5z"/>
<rect x="161.4" y="627.4" class="st3" width="733" height="2"/>
<rect x="26" y="663.6" class="st3" width="189" height="2.3"/>
<rect x="851" y="663.6" class="st3" width="189" height="2.3"/>
<path class="st3" d="M136.1,590.7c-19.9,32.5-13.1,72.9-13.1,72.9s39.1-12.3,59-44.8s13.1-72.9,13.1-72.9S156.1,558.2,136.1,590.7z"
	/>
<path class="st4" d="M122.3,663.9l-1.1-0.2c-0.4-0.1-41.2-6.8-65.6-36s-23.8-70.5-23.8-70.9v-1.1l1.1,0.2c0.4,0.1,41.2,6.8,65.6,36
	l0,0c24.4,29.2,23.8,70.5,23.8,70.9V663.9z"/>
<path class="st3" d="M123.9,665l-1.1-0.3c-0.4-0.1-39.7-12.8-59.6-45.2C43.3,587,49.9,546.2,50,545.8l0.2-1.1l1.1,0.3
	c0.4,0.1,39.7,12.8,59.6,45.2l0,0c19.9,32.5,13.3,73.2,13.2,73.6L123.9,665z M51.8,547.3c-0.9,6.8-4.5,42.3,13.1,71.1
	c17.6,28.7,50.9,41.7,57.4,44c0.9-6.8,4.5-42.3-13.1-71.1l0,0C91.6,562.5,58.3,549.6,51.8,547.3L51.8,547.3z"/>
<circle class="st3" cx="124.3" cy="536.3" r="22"/>
<path class="st0" d="M602,67.3c-22.4,35.7-31.6,48.9-82.8,59.2c0.8,0.1,1.6,0.3,2.3,0.4c43.2-1.9,69.8-24.7,85.2-58.9L602,67.3z"/>
<path class="st3" d="M989,596.1h-2v-15c0-1.7,1.3-3,3-3h5c0.6,0,1-0.4,1-1v-10c0-0.6-0.4-1-1-1h-5c-1.7,0-3-1.3-3-3v-5
	c0-0.6-0.4-1-1-1h-9c-1.7,0-3-1.3-3-3v-1c0-0.6-0.4-1-1-1h-36c-0.6,0-1,0.4-1,1v1c0,1.7-1.3,3-3,3h-9c-0.6,0-1,0.4-1,1v5
	c0,1.7-1.3,3-3,3h-5c-0.6,0-1,0.4-1,1v10c0,0.6,0.4,1,1,1h6c1.7,0,3,1.3,3,3v15h-2v-15c0-0.6-0.4-1-1-1h-6c-1.7,0-3-1.3-3-3v-10
	c0-1.7,1.3-3,3-3h5c0.6,0,1-0.4,1-1v-5c0-1.7,1.3-3,3-3h9c0.6,0,1-0.4,1-1v-1c0-1.7,1.3-3,3-3h36c1.7,0,3,1.3,3,3v1c0,0.6,0.4,1,1,1
	h9c1.7,0,3,1.3,3,3v5c0,0.6,0.4,1,1,1h5c1.7,0,3,1.3,3,3v10c0,1.7-1.3,3-3,3h-5c-0.6,0-1,0.4-1,1V596.1z"/>
<path class="st3" d="M986,666.1h-61c-1.7,0-3-1.3-3-3v-43h2v43c0,0.6,0.4,1,1,1h61c0.6,0,1-0.4,1-1v-43h2v43
	C989,664.7,987.7,666,986,666.1z"/>
<path class="st4" d="M924,603.1h75c1.1,0,2,0.9,2,2v20c0,1.1-0.9,2-2,2h-75c-1.1,0-2-0.9-2-2v-20C922,603.9,922.9,603.1,924,603.1z"
	/>
<path class="st3" d="M992.5,621.1h-75c-1.7,0-3-1.3-3-3v-20c0-1.7,1.3-3,3-3h75c1.7,0,3,1.3,3,3v20
	C995.5,619.7,994.2,621,992.5,621.1z M917.5,597.1c-0.6,0-1,0.4-1,1v20c0,0.6,0.4,1,1,1h75c0.6,0,1-0.4,1-1v-20c0-0.6-0.4-1-1-1
	H917.5z"/>
<path class="st2" d="M949.3,535.1L949.3,535.1c-2.7-17.9-3.4-36.1-2.1-54.1l2.1-29.9l0,0C937.8,474,940.4,504.2,949.3,535.1
	L949.3,535.1z"/>
<path class="st2" d="M962,548.1L962,548.1c-1.3-10.7-1.6-21.5-1-32.2l1-17.8l0,0C956.4,511.7,957.7,529.7,962,548.1z"/>
<path class="st0" d="M683.5,269.1"/>
<title>googlechrome</title>
<g id="laptop">
	<path class="st3" d="M732.4,371.8H566v-3.4h-75.5v3.4H323.4c-6.2,0-11.3,5-11.3,11.3V611c0,6.2,5,11.3,11.3,11.3h409
		c6.2,0,11.3-5,11.3-11.3V383.1C743.7,376.9,738.7,371.8,732.4,371.8L732.4,371.8z"/>
	<path class="st5" d="M431.1,528.9l13.1-3.3c1.3,2.8,2.1,6.2,2.1,9.7l0,0c0,12.9-10.6,23.5-23.5,23.5c-0.6,0-1.2,0-1.8-0.1l9.6-16.3
		c0.7-0.7,1.3-1.6,1.7-2.5c0.6-1.3,1-2.9,1-4.5c0-1.7-0.4-3.3-1.1-4.8v0.1C431.9,530,431.5,529.4,431.1,528.9L431.1,528.9
		L431.1,528.9z M424.7,545.6l-4.1,13c-11.9-1.2-21.2-11.3-21.2-23.4c0-4.7,1.4-9.2,4-13.1l9.4,16.3c0.4,1.1,2.2,5,6,6.5
		C420.8,545.8,422.8,546,424.7,545.6L424.7,545.6z M422.8,526.8c-3.9,0-7.6,3-8.4,6.9c-0.1,0.5-0.2,1.1-0.2,1.7c0,2.4,1,4.6,2.6,6.2
		l0,0c2.4,2.3,6.1,3.1,9.2,1.8c2.7-1.1,4.8-3.8,5.2-6.7c0.5-3.6-1.5-7.5-4.9-9C425.4,527.1,424.2,526.8,422.8,526.8L422.8,526.8
		L422.8,526.8z M413.2,531.4l-9.3-9.8c4.3-5.9,11.2-9.7,19-9.7l0,0c8.9,0,17.1,5.1,21,13H424c-3.5-0.2-6.4,1-8.3,2.8
		C414.6,528.8,413.8,530,413.2,531.4C413.2,531.3,413.2,531.4,413.2,531.4z"/>
	<path class="st6" d="M390.1,426.8h48.3l-4.4,49.6l-19.8,5.6l-19.7-5.6L390.1,426.8z M406.3,449.3l-0.5-6.3h23.1l0.5-6h-30.3
		l1.6,18.4h21l-0.8,7.9l-6.7,1.8l-6.8-1.9l-0.4-4.9h-6l0.8,9.6l12.5,3.3l12.4-3.3l1.7-18.8L406.3,449.3z"/>
	<path class="st7" d="M532.3,447.1h61.3v61.4h-61.3V447.1z M588.6,493.8c-0.4-2.8-2.3-5.2-7.7-7.3c-1.9-0.9-4-1.5-4.6-2.9
		c-0.2-0.8-0.3-1.3-0.1-1.8c0.4-1.7,2.3-2.1,3.9-1.7c1,0.3,1.9,1.1,2.5,2.3c2.6-1.7,2.6-1.7,4.5-2.9c-0.7-1.1-1-1.5-1.5-2
		c-1.6-1.8-3.8-2.7-7.2-2.6l-1.8,0.2c-1.7,0.4-3.4,1.3-4.4,2.6c-2.9,3.3-2.1,9.1,1.5,11.4c3.5,2.6,8.6,3.2,9.2,5.6
		c0.6,3-2.2,3.9-5,3.6c-2.1-0.5-3.2-1.5-4.5-3.4l-4.7,2.7c0.5,1.2,1.2,1.8,2.1,2.8c4.4,4.5,15.6,4.3,17.6-2.6
		c0.1-0.2,0.6-1.8,0.2-4.2V493.8z M565.6,475.3h-5.7c0,5,0,9.9,0,14.8c0,3.1,0.2,6-0.4,6.9c-0.8,1.8-3,1.5-4,1.2
		c-1-0.5-1.5-1.2-2.1-2.2c-0.2-0.3-0.3-0.5-0.3-0.5l-4.7,2.9c0.8,1.6,1.9,3,3.4,3.9c2.2,1.3,5.1,1.7,8.2,1c2-0.6,3.7-1.8,4.6-3.6
		c1.3-2.4,1-5.3,1-8.6C565.6,485.8,565.6,480.6,565.6,475.3L565.6,475.3z"/>
	<path d="M708.7,443.6C708.5,443.7,708.5,443.7,708.7,443.6c0.1,0,0.1,0,0.2-0.1l0,0C708.9,443.5,708.9,443.5,708.7,443.6z
		 M709.1,443.3C709,443.4,709,443.4,709.1,443.3c0.1,0,0.1-0.1,0.1-0.1C709.3,443.2,709.3,443.2,709.1,443.3z M709.4,443.2
		C709.3,443.2,709.3,443.2,709.4,443.2c0.1,0,0.1-0.1,0.1-0.1C709.6,443.1,709.5,443.1,709.4,443.2z M709.7,443
		C709.6,443.1,709.6,443.1,709.7,443c0.1,0,0.1-0.1,0.1-0.1C709.9,442.9,709.8,442.9,709.7,443z M710.1,442.7
		c-0.2,0.1-0.3,0.2-0.1,0.1c0.1-0.1,0.3-0.2,0.3-0.2C710.2,442.6,710.2,442.7,710.1,442.7L710.1,442.7L710.1,442.7z M692.6,388.5
		c-0.1,0-0.5,0.1-0.9,0.1c-8.3,0.8-16.1,5.2-21.1,12.2c-2.6,3.6-4.5,8-5.2,12.7v0.2c-0.2,1.6-0.3,2.1-0.3,4.3s0,2.7,0.3,4.3
		c1.6,11,9.4,20.3,20.1,23.7c1.9,0.6,3.9,1,6.2,1.3c0.9,0.1,4.7,0.1,5.6,0c3.9-0.4,7.3-1.4,10.6-3.1c0.5-0.3,0.6-0.3,0.5-0.4
		c-0.6-0.7-2.1-2.8-3.7-4.9l-1.1-1.5l-4.7-6.3l-5.9-8.7c-3.8-5.7-5.7-8.5-7.7-11.3l1.7,2.6c0,0,0,3.9-0.1,8.6c0,8.3,0,8.6-0.1,8.8
		c-0.1,0.2-0.3,0.4-0.5,0.5l0,0c-0.2,0.1-0.3,0.1-1.2,0.1h-1l-0.3-0.2c-0.2-0.1-0.3-0.2-0.4-0.4l0,0l-0.1-0.3v-11.5v-11.5l0.2-0.2
		c0.1-0.1,0.3-0.3,0.4-0.3l0,0c0.2-0.1,0.3-0.1,1.3-0.1c1.2,0,1.4,0,1.7,0.4c-0.2-0.5,2.1,3,4.4,6.4l2.6,4.2
		c3.8,5.8,9,13.7,11.6,17.5l4.6,7l0.2-0.2c2.3-1.5,4.3-3.3,6-5.3l0,0c3.6-4.1,6-9.2,6.9-14.8v-0.2c0.2-1.6,0.3-2.1,0.3-4.3
		c0-2.2,0-2.7-0.3-4.3c-1.6-11-9.4-20.3-20.1-23.7c-1.8-0.6-3.8-1-6-1.3H697C696.8,388.6,693,388.5,692.6,388.5L692.6,388.5z
		 M704.6,406.3c0.3,0.1,0.5,0.4,0.6,0.7l0,0c0,0.1,0.1,3.3,0,10.5v10.3l-1.8-2.8l-1.8-2.8v-7.5c0-4.8,0-7.6,0.1-7.7
		c0.1-0.3,0.3-0.6,0.6-0.7l0,0c0.2-0.1,0.3-0.1,1.2-0.1C704.2,406.2,704.4,406.2,704.6,406.3z"/>
	<path class="st8" d="M609.9,597.5c-0.7,0-1.4-0.2-2-0.5l-6.5-3.8c-1-0.5-0.5-0.7-0.2-0.8c1.3-0.4,1.5-0.5,2.9-1.3
		c0.1-0.1,0.3-0.1,0.5,0l5,2.9c0.2,0.1,0.4,0.1,0.6,0l19.4-11.2c0.2-0.1,0.3-0.3,0.3-0.5V560c0-0.2-0.1-0.4-0.3-0.5l-19.3-11.2
		c-0.2-0.1-0.4-0.1-0.6,0l-19.3,11.2c-0.2,0.1-0.3,0.3-0.3,0.5v22.3c0,0.2,0.1,0.4,0.3,0.5l5.3,3.1c2.9,1.4,4.6-0.3,4.6-2v-22.1
		c0-0.3,0.3-0.6,0.6-0.6h2.5c0.3,0,0.6,0.2,0.6,0.6v22.1c0,3.8-2.1,6-5.7,6c-1.1,0-2,0-4.5-1.2l-5.1-2.9c-1.3-0.7-2-2.1-2-3.5V560
		c0-1.5,0.8-2.8,2-3.5l19.4-11.2c1.2-0.7,2.9-0.7,4.1,0l19.4,11.2c1.3,0.7,2,2.1,2,3.5v22.3c0,1.5-0.8,2.8-2,3.5L611.9,597
		C611.3,597.3,610.6,597.5,609.9,597.5L609.9,597.5z M625.5,575.5c0-4.2-2.8-5.3-8.8-6.1s-6.6-1.2-6.6-2.6c0-1.2,0.5-2.7,5-2.7
		c4,0,5.4,0.9,6,3.5c0.1,0.3,0.3,0.4,0.5,0.4h2.5c0.2,0,0.3-0.1,0.4-0.2c0.1-0.1,0.2-0.3,0.1-0.4c-0.4-4.6-3.5-6.8-9.7-6.8
		c-5.5,0-8.8,2.3-8.8,6.2c0,4.2,3.3,5.4,8.6,5.9c6.3,0.6,6.8,1.5,6.8,2.8c0,2.2-1.7,3.1-5.8,3.1c-5.1,0-6.2-1.3-6.6-3.8
		c0-0.3-0.3-0.5-0.6-0.5H606c-0.3,0-0.6,0.2-0.6,0.6c0,3.3,1.8,7.1,10.2,7.1C622,582.1,625.5,579.7,625.5,575.5L625.5,575.5z"/>
	<path class="st9" d="M665.6,493.1c-3.7,0-6.7,3-6.7,6.7s3,6.7,6.7,6.7l0,0c3.7,0,6.7-3,6.7-6.7S669.4,493.1,665.6,493.1
		L665.6,493.1z M646.8,513.2l-1.5-0.4c-11.1-2.8-17.4-7.5-17.4-13s6.3-10.2,17.4-13l1.5-0.4l0.4,1.5c1.3,4.4,2.7,8.1,4.5,11.7
		l-0.2-0.4l0.3,0.7l-0.3,0.7c-1.5,3.1-3,6.9-4.2,10.7l-0.1,0.5L646.8,513.2z M644.6,490.2c-8.4,2.4-13.6,6-13.6,9.6
		s5.2,7.2,13.6,9.6c1.2-3.8,2.5-7,3.9-10.1l-0.2,0.5c-1.3-2.6-2.5-5.8-3.6-9L644.6,490.2L644.6,490.2z M684.5,513.2l-0.4-1.5
		c-1.3-4.4-2.7-8.1-4.5-11.7l0.2,0.4l-0.3-0.7l0.3-0.7c1.5-3.1,3-6.9,4.2-10.7l0.1-0.5l0.4-1.5l1.5,0.4c11.1,2.8,17.4,7.5,17.4,13
		s-6.3,10.2-17.4,13L684.5,513.2z M682.9,499.8c1.5,3.3,2.8,6.5,3.7,9.6c8.4-2.4,13.6-6,13.6-9.6s-5.2-7.2-13.6-9.6
		c-1.2,3.8-2.5,7-3.9,10.1L682.9,499.8L682.9,499.8z M644.6,490.2l-0.4-1.5c-3.1-11-2.2-18.8,2.6-21.6c4.7-2.7,12.2,0.5,20,8.5
		l1.1,1.1l-1.1,1.1c-2.7,2.8-5.2,5.9-7.5,9.1l-0.2,0.2l-0.4,0.6l-0.7,0.1c-4.4,0.4-8.5,1-12.4,2l0.5-0.1L644.6,490.2z M650.6,469.4
		c-0.8,0-1.6,0.2-2.2,0.5c-3.1,1.8-3.7,8.1-1.5,16.5c2.9-0.7,6.3-1.2,9.9-1.6h0.3c2.1-3,4.2-5.6,6.5-8.1v0.1
		C658.5,472.1,653.9,469.4,650.6,469.4z M680.7,533.4L680.7,533.4c-4.5,0-10.2-3.4-16.2-9.5l-1.1-1.1l1.1-1.1
		c2.7-2.8,5.2-5.9,7.5-9.1l0.2-0.2l0.4-0.6l0.7-0.1c4.4-0.4,8.5-1,12.4-2l-0.5,0.1l1.5-0.4l0.4,1.5c3.1,11,2.2,18.8-2.6,21.6
		c-1.1,0.6-2.3,1-3.7,1C680.8,533.4,680.7,533.4,680.7,533.4L680.7,533.4L680.7,533.4z M667.8,522.8c4.9,4.8,9.5,7.5,12.9,7.5l0,0
		c0.8,0,1.6-0.2,2.2-0.5c3.1-1.8,3.7-8.1,1.5-16.5c-2.9,0.7-6.3,1.2-9.9,1.6h-0.3C672.2,517.7,670.1,520.4,667.8,522.8L667.8,522.8
		L667.8,522.8z M686.7,490.2l-1.5-0.4c-3.4-0.9-7.5-1.6-11.6-1.9h-0.3l-0.7-0.1l-0.4-0.6c-2.4-3.5-4.9-6.5-7.6-9.4l0,0l-1.1-1.1
		l1.1-1.1c7.8-8,15.3-11.2,20-8.5c4.8,2.7,5.7,10.6,2.6,21.6L686.7,490.2z M674.3,484.8c3.6,0.3,7,0.9,10.2,1.6
		c2.2-8.5,1.6-14.7-1.5-16.5s-8.9,1-15.1,6.9c2.2,2.4,4.3,5,6.3,7.8C674.1,484.6,674.3,484.8,674.3,484.8z M650.6,533.4L650.6,533.4
		c-1.5,0-2.7-0.4-3.8-1l0,0c-4.8-2.7-5.7-10.6-2.6-21.6l0.4-1.5l1.5,0.4c3.6,0.9,7.6,1.6,11.9,1.9l0.7,0.1l0.4,0.6
		c2.4,3.5,4.9,6.5,7.6,9.4l0,0l1.1,1.1l-1.1,1.1C660.8,530,655,533.4,650.6,533.4L650.6,533.4z M646.8,513.2
		c-2.2,8.5-1.6,14.7,1.5,16.5s8.9-1,15.1-6.9c-2.2-2.4-4.3-5-6.3-7.8l-0.2-0.2c-3.8-0.3-7.3-0.9-10.7-1.7L646.8,513.2L646.8,513.2z
		 M665.6,515.2c-2.6,0-5.2-0.1-7.9-0.3l-0.7-0.1l-0.4-0.6c-1.3-1.8-2.7-4-4-6.2l-0.2-0.4c-1.1-1.8-2.3-4.1-3.4-6.4l-0.2-0.6
		l-0.3-0.7l0.3-0.7c1.4-2.9,2.6-5.2,3.9-7.5l-0.2,0.5c1.3-2.3,2.7-4.5,4.2-6.7l0.4-0.6l0.7-0.1c2.4-0.2,5.1-0.3,7.9-0.3
		s5.5,0.1,8.3,0.4h-0.4l0.7,0.1l0.4,0.6c2.8,3.9,5.4,8.4,7.7,13.1l0.2,0.6l0.3,0.7l-0.3,0.7c-2.5,5.3-5.1,9.7-8.1,14l0.2-0.3
		l-0.4,0.6l-0.7,0.1C670.9,515,668.2,515.2,665.6,515.2L665.6,515.2z M658.7,511.8c4.7,0.3,9.2,0.3,13.8,0c2.4-3.4,4.7-7.3,6.7-11.4
		l0.2-0.5c-2.2-4.6-4.5-8.5-7.1-12.2l0.2,0.3c-2.1-0.2-4.5-0.3-6.9-0.3s-4.8,0.1-7.2,0.3h0.3c-2.4,3.4-4.7,7.3-6.7,11.4l-0.2,0.5
		c2.2,4.6,4.5,8.5,7.1,12.2L658.7,511.8L658.7,511.8z"/>
	<path class="st10" d="M473.5,516.3V550H541v-67.5h-67.5V516.3z M527.9,513.6c1.7,0.4,3,1.2,4.2,2.4c0.6,0.7,1.5,1.9,1.6,2.2
		c0,0.1-2.9,2.1-4.7,3.2c-0.1,0-0.3-0.2-0.6-0.7c-0.9-1.3-1.8-1.8-3.2-1.9c-2-0.1-3.4,0.9-3.4,2.7v0.1c0,0.4,0.1,0.8,0.3,1.2l0,0
		c0.4,0.9,1.3,1.5,3.9,2.6c4.8,2.1,6.9,3.5,8.2,5.4c1.4,2.2,1.8,5.6,0.8,8.2c-1.1,2.8-3.7,4.7-7.5,5.3c-1.2,0.2-3.9,0.2-5.1-0.1
		c-2.7-0.5-5.3-1.8-6.9-3.6c-0.6-0.7-1.8-2.5-1.8-2.6c0,0,0.3-0.2,0.6-0.4s1.4-0.8,2.5-1.4l1.9-1.1l0.4,0.6c0.6,0.9,1.8,2.1,2.6,2.5
		c2.2,1.1,5.1,1,6.6-0.3c0.5-0.5,0.9-1.1,0.9-1.9v-0.1l0,0c0-0.8-0.1-1.1-0.5-1.7c-0.5-0.7-1.6-1.4-4.6-2.7c-3.5-1.5-5-2.4-6.4-3.9
		c-0.8-0.9-1.5-2.1-1.8-3.3v-0.1c-0.3-1-0.3-3.3-0.1-4.3c0.7-3.4,3.3-5.7,6.9-6.4C524,513.2,526.7,513.3,527.9,513.6L527.9,513.6z
		 M512.1,516.4v2.8h-8.8v25h-6.2v-25h-8.8v-2.7c0-1.5,0-2.8,0.1-2.8c0,0,5.4-0.1,11.9-0.1h11.8V516.4z"/>
	<path class="st11" d="M695.4,574.1h8.3l-4.2-9.9L695.4,574.1z M699.5,548.6l-22.8,8l3.5,29.7l19.3,10.6l19.3-10.6l3.5-29.7
		L699.5,548.6z M713.7,585.5h-5.3l-2.9-7.1h-12.1l-2.9,7.1h-5.3l14.2-31.5L713.7,585.5z"/>
	<path class="st12" d="M337.6,398.3h49.2l-4.5,50.5l-20.2,5.7l-20-5.7L337.6,398.3z M377.6,408.6h-30.8l0.5,6.1H371l-0.6,6.4h-15.5
		l0.6,6H370l-0.9,8.2l-6.8,1.9l-6.9-1.9l-0.4-4.9h-6.1l0.7,9l12.8,4l12.6-3.6L377.6,408.6z"/>
	<path d="M353.5,479.6c-12.2,0-22.1,9.9-22.1,22.1c0,9.8,6.3,18.1,15.1,21c1.1,0.2,1.5-0.5,1.5-1.1c0-0.5,0-1.9,0-3.8
		c-6.2,1.3-7.5-3-7.5-3c-1-2.6-2.5-3.2-2.5-3.2c-2-1.4,0.2-1.3,0.2-1.3c2.2,0.2,3.4,2.3,3.4,2.3c2,3.4,5.2,2.4,6.4,1.8
		c0.2-1.4,0.8-2.4,1.4-3c-4.9-0.6-10.1-2.5-10.1-10.9c0-2.4,0.9-4.4,2.3-5.9c-0.2-0.6-1-2.8,0.2-5.9c0,0,1.9-0.6,6.1,2.3
		c1.8-0.5,3.7-0.7,5.5-0.7c1.9,0,3.8,0.3,5.5,0.7c4.2-2.9,6.1-2.3,6.1-2.3c1.2,3,0.4,5.3,0.2,5.9c1.4,1.5,2.3,3.5,2.3,5.9
		c0,8.5-5.2,10.4-10.1,10.9c0.8,0.7,1.5,2,1.5,4.1c0,3,0,5.3,0,6.1c0,0.6,0.4,1.3,1.5,1.1c8.9-2.9,15.2-11.2,15.2-21
		C375.6,489.5,365.7,479.6,353.5,479.6L353.5,479.6z"/>
	<path class="st13" d="M351.5,560.7L351.5,560.7z M346.4,558.1L346.4,558.1z M376.9,562.1c-0.9-2.2-2.8-4.6-4.2-5.4
		c1.2,2.3,1.9,4.7,2.1,6.4l0,0c-2.4-6-6.5-8.4-9.8-13.6c-0.2-0.3-0.3-0.5-0.5-0.8c-0.1-0.1-0.1-0.3-0.2-0.4l0,0
		c-0.1-0.2-0.2-0.5-0.3-0.8l0,0l0,0v-0.1l0,0l0,0l0,0l0,0l0,0l0,0l0,0l0,0l0,0c-4.7,2.8-6.7,7.6-7.2,10.7c-1.5,0.1-3,0.5-4.3,1.1
		h0.1c-0.2,0.1-0.3,0.3-0.3,0.5c0,0.1,0,0.1,0,0.2l0,0c0.1,0.2,0.3,0.4,0.5,0.4c0.1,0,0.2,0,0.2,0l0,0c1.1-0.5,2.3-0.9,3.6-1l0,0
		h0.1c0.2,0,0.3,0,0.5,0l0,0c0,0,0,0,0.1,0c1.1,0,2.1,0.2,3,0.4h-0.1l0.2,0.1c0.2,0.1,0.4,0.1,0.6,0.2h-0.1c0.2,0.1,0.3,0.1,0.4,0.2
		h-0.1c0.1,0,0.2,0.1,0.3,0.1c0.2,0.1,0.4,0.2,0.5,0.2h-0.1l0.2,0.1c0.2,0.1,0.3,0.2,0.5,0.3l0,0c0.1,0.1,0.2,0.1,0.3,0.2l0,0
		c1.5,1,2.8,2.3,3.7,3.8v0.1c-1.1-0.8-3.2-1.6-5.1-1.2c7.6,3.8,5.6,16.9-5,16.4c-1,0-1.9-0.2-2.8-0.6h0.1c-0.3-0.1-0.5-0.2-0.7-0.3
		h0.1c-0.2-0.1-0.3-0.1-0.4-0.2l0,0c-2.6-1.3-4.7-3.9-5-6.9c0,0,1-3.6,7-3.6c0.7,0,2.5-1.8,2.5-2.3c0-0.2-3.7-1.6-5.1-3.1
		c-0.8-0.8-1.1-1.1-1.5-1.4c-0.2-0.1-0.3-0.3-0.5-0.4l0,0c-0.2-0.8-0.4-1.7-0.4-2.7c0-0.9,0.1-1.7,0.3-2.5v0.1
		c-2.2,1-3.9,2.6-5.1,3.9l0,0c-0.8-1.1-0.8-4.6-0.7-5.3c0,0-0.6,0.3-0.7,0.4c-0.8,0.6-1.4,1.1-2.1,1.8l0,0c-0.7,0.7-1.4,1.5-1.9,2.3
		v0.1c-1.3,1.8-2.3,4-2.8,6.3v0.1c0,0-0.2,0.9-0.3,2c0,0,0,0.2-0.1,0.4v0.1c-0.1,0.3-0.1,0.8-0.1,1.2l0,0v0.1c0,0.1,0,0.3,0,0.6v0.1
		v0.1c0,11.7,9.5,21.2,21.2,21.2c10.5,0,19.2-7.6,20.9-17.6c0-0.3,0.1-0.5,0.1-0.8C378.7,569.1,378.2,565.3,376.9,562.1L376.9,562.1
		z"/>
	<path class="st13" d="M487.6,415.6l21.6,27.7l-23.7-17.2c-0.7-0.5-0.9-1.3-0.7-2.1L487.6,415.6L487.6,415.6z M500.2,415.6h18
		l-9,27.7L500.2,415.6z M494.8,398.9l5.4,16.7h-12.6l5.4-16.7C493.3,398.1,494.5,398.1,494.8,398.9z M530.9,415.6l2.8,8.4
		c0.2,0.8,0,1.6-0.7,2.1l-23.7,17.2L530.9,415.6L530.9,415.6z M530.9,415.6h-12.6l5.4-16.7c0.3-0.8,1.5-0.8,1.8,0L530.9,415.6z"/>
	<path class="st14" d="M454.2,569.5v31.9h32.7v-31.9H454.2z M455.6,570.8h29.9v29.1h-29.9V570.8z M465.6,587.5l-1.1,4.1
		c0,0.1-0.1,0.1-0.2,0.1h-2c-0.1,0-0.2,0-0.1-0.2L466,578c0.1-0.2,0.1-0.5,0.1-1.1c0-0.1,0-0.1,0.1-0.1h2.9c0.1,0,0.1,0,0.2,0.1
		l4.3,14.7c0,0.1,0,0.2-0.1,0.2h-2.2c-0.1,0-0.2,0-0.2-0.1l-1.1-4.1L465.6,587.5z M469.4,585.3c-0.4-1.5-1.3-4.8-1.6-6.4l0,0
		c-0.3,1.6-1,4.3-1.6,6.4H469.4z M475.5,577.7c0-0.9,0.6-1.4,1.4-1.4s1.4,0.6,1.4,1.4c0,0.9-0.6,1.4-1.4,1.4
		C476,579.1,475.5,578.6,475.5,577.7z M475.6,580.8c0-0.1,0-0.2,0.2-0.2h2.1c0.1,0,0.2,0,0.2,0.2v10.7c0,0.1,0,0.2-0.2,0.2h-2.1
		c-0.1,0-0.2-0.1-0.2-0.2V580.8z"/>
</g>
<g>
	<g>
		<path class="st15" d="M144.8,155.1c-3.6,55.2,13.6,105.2,28.6,137.3L144.8,155.1z"/>
		<path class="st16" d="M193.8,329.2c0,0-9.6-13.8-20.4-36.9"/>
		<path class="st15" d="M206.2,260.8c5-12.5,32.5-17.1,51.5-18.9c-0.8-10-3.4-20.9-8.2-32.1c-60.5,56.2-61.2,19.8-61.2,19.8
			c6.7-24.4,35.4-31.8,53.8-34c-4-6.6-8.9-13.2-14.9-19.8c-21.9,13.8-61.3,36.2-52.2,13.8c6.9-17.1,26.5-22.2,42.6-23.4
			c-5.6-5.1-11.8-10.1-18.9-15c-13.1,8.2-39,23-38.1,11c0.7-10.2,18.8-13.8,31.9-15.1c-15.3-9.8-34-18.8-56.5-26.5
			c0,0-36.7,29.6-58,69c12.9-0.7,29.6,1.3,37.9,14.2c10.5,16.3-22.7,3.2-42.2-5.5c-3.6,7.8-6.5,16-8.4,24.3
			c16-2.8,38.6-3.9,52.6,7.7c17,14.1-27.9,6.2-54.1,0.7c-1.4,10.8-0.7,21.8,2.7,32.7c21-5.6,55.3-10.3,64.8,15.6
			c9.3,25.4-30,12.4-57.3,1c2.3,3.9,5,7.7,8.2,11.4c0,0,44.5,31.1,89.6,0c0,0,0.5,0.2,1.4,0.4h0c8.2,2.6,50.5,15,70.1,0.3
			c7.5-5.7,14.6-22,14.5-43C235.6,259.9,200.9,274.1,206.2,260.8z M101.7,170.6c6.6-10.1,22.2,4.2,22.2,4.2
			C112.9,185.2,95.1,180.7,101.7,170.6z"/>
	</g>
	<g>
		<path class="st17" d="M204,329.2c0,0-9.6-13.8-20.4-36.9"/>
		<path class="st17" d="M146.5,120.8c0,0-36.7,29.6-58,69c12.9-0.7,29.6,1.3,37.9,14.2c10.5,16.3-22.7,3.2-42.2-5.5
			c-3.6,7.9-6.5,16-8.3,24.3c16-2.8,38.6-3.9,52.6,7.7c17,14.1-27.9,6.2-54.1,0.7C73,242,73.6,253,77,263.9
			c21-5.6,55.3-10.3,64.8,15.6c9.3,25.4-30,12.4-57.3,1c2.3,3.9,5,7.7,8.2,11.5c0,0,44.5,31.1,89.6,0
			C167.2,259.8,142.8,176,146.5,120.8z M111.9,170.6c6.6-10.1,22.2,4.2,22.2,4.2C123.1,185.2,105.3,180.7,111.9,170.6z"/>
		<path class="st17" d="M268.3,249.6c0.1,21-7,37.4-14.5,43c-19.6,14.7-62,2.3-70.1-0.3h0c-0.9-0.3-1.4-0.4-1.4-0.4
			c-15-32.1-39.4-115.9-35.8-171.1c22.5,7.7,41.1,16.7,56.4,26.5c-13.1,1.3-31.2,4.9-31.9,15.1c-0.9,12,25-2.8,38.1-11
			c7,4.8,13.3,9.9,18.9,15c-16.1,1.2-35.7,6.3-42.6,23.4c-9.1,22.4,30.2,0,52.2-13.8c5.9,6.5,10.8,13.2,14.9,19.8
			c-18.4,2.2-47.1,9.7-53.8,34c0,0,0.7,36.5,61.2-19.8c4.8,11.1,7.3,22,8.2,32.1c-19,1.7-46.5,6.4-51.5,18.9
			C211.1,274.1,245.8,259.9,268.3,249.6z"/>
		<path class="st17" d="M134,174.8c-10.9,10.4-28.8,5.9-22.2-4.2C118.5,160.5,134,174.8,134,174.8z"/>
	</g>
</g>
<g>
	<g>
		<path class="st15" d="M381.9,132.8c-35.5,23.1-60.9,53.3-76,74.6L381.9,132.8z"/>
		<path class="st16" d="M289.7,233.3c0,0,5.4-10.6,16.2-25.8"/>
		<path class="st15" d="M402,155.8c-0.7,5.4-1.8,10.5-3.1,15.3c-6-6.8-15.7-13.5-28.6-9c-16.9,5.9,10,13.8,25.7,17.7
			c-2.1,5.6-4.6,10.8-7.4,15.6c-7.5-7.4-21.5-17.2-38.9-9.3c0,0-22.4,16.7,32.5,19.1c-5.3,7.2-11.3,13.2-17.3,18.1
			c-13.1,9.5-30.2,17.2-36.2,16.3c-15.6-2.4-21.8-27.3-22.9-32.2v0c-0.1-0.5-0.2-0.8-0.2-0.8c-34.2-6.7-29.5-40.9-29.5-40.9
			c1.3-3.1,2.8-6.1,4.4-8.9c1.9,17.6,6.8,41.4,19.5,25.7c13-16-1.2-29.6-11.6-36.6c5.7-6.4,12.3-11.6,19.4-15.8
			c5.2,14.4,15.1,38.5,18.3,24.4c2.6-11.6-5.5-21.4-12.5-27.5c5.8-2.9,11.8-5.2,17.9-7.1c1,12.8,3.8,33.9,10.5,21.8
			c5.3-9.6,1-18.1-3.7-23.7c31.5-7.9,62-4.4,62-4.4c2.6,13.7,3.2,26.3,2.1,37.7c-5.1-5.4-13.3-12-19.9-7.8
			C374.9,148.3,392.6,153.5,402,155.8z"/>
	</g>
	<g>
		<path class="st17" d="M403.8,118.2c-35.5,23.1-79.5,72.6-94.5,93.9"/>
		<path class="st17" d="M293.1,237.9c0,0,5.4-10.6,16.2-25.8"/>
		<path class="st17" d="M405.4,160.5c-0.7,5.4-1.8,10.5-3.1,15.3c-6-6.8-15.7-13.5-28.6-9c-16.9,5.9,10,13.8,25.8,17.7
			c-2.1,5.6-4.6,10.9-7.4,15.7c-7.5-7.4-21.5-17.2-38.9-9.4c0,0-22.5,16.7,32.4,19.1c-5.3,7.2-11.3,13.2-17.3,18.1
			c-13.1,9.5-30.2,17.2-36.2,16.3c-15.6-2.4-21.8-27.3-22.9-32.2h0c-0.1-0.5-0.2-0.8-0.2-0.8c-34.2-6.7-29.5-40.9-29.5-40.9
			c1.3-3.1,2.8-6.1,4.4-8.9c1.9,17.6,6.8,41.4,19.5,25.8c13-16-1.2-29.6-11.6-36.6c5.7-6.4,12.3-11.6,19.4-15.9
			c5.2,14.4,15.1,38.5,18.2,24.4c2.6-11.6-5.5-21.4-12.5-27.5c5.8-2.9,11.8-5.2,17.9-7.1c1,12.8,3.8,33.9,10.5,21.8
			c5.3-9.6,1-18.1-3.7-23.7c31.5-8,62-4.5,62-4.5c2.6,13.7,3.2,26.3,2.1,37.7c-5.1-5.4-13.3-12-19.9-7.8
			C378.3,153,396,158.2,405.4,160.5z"/>
	</g>
</g>
<g>
	<g>
		<circle class="st15" cx="769.8" cy="302.8" r="9.5"/>
		<circle class="st15" cx="805.1" cy="319.5" r="7.2"/>
		<circle class="st15" cx="823.3" cy="304.3" r="10.9"/>
		<circle class="st15" cx="846.5" cy="330.7" r="6.2"/>
		<circle class="st15" cx="813.9" cy="363.9" r="8.8"/>
		<circle class="st15" cx="787.3" cy="344.8" r="8"/>
		<circle class="st15" cx="784.5" cy="370.7" r="5.2"/>
		<circle class="st15" cx="793" cy="325.1" r="5.6"/>
		<circle class="st15" cx="756.6" cy="292.3" r="5.3"/>
		<circle class="st15" cx="807.4" cy="288.1" r="9.5"/>
		<circle class="st15" cx="841.5" cy="294.7" r="5.3"/>
		<circle class="st15" cx="852.6" cy="299.9" r="7.3"/>
		<circle class="st15" cx="795.2" cy="294.1" r="8.1"/>
		<circle class="st15" cx="781.1" cy="275.2" r="6.1"/>
		<circle class="st15" cx="829.7" cy="281.6" r="6.5"/>
		<circle class="st15" cx="822.3" cy="345.1" r="9.9"/>
		<circle class="st15" cx="839.3" cy="372.6" r="7.1"/>
		<circle class="st15" cx="810.2" cy="387.6" r="6.7"/>
		<circle class="st15" cx="866.6" cy="313.2" r="6.2"/>
		<circle class="st15" cx="858.4" cy="289.4" r="8.2"/>
		<ellipse transform="matrix(0.414 -0.9103 0.9103 0.414 164.5672 860.07)" class="st15" cx="750.3" cy="302.2" rx="5.4" ry="5.7"/>
		<circle class="st15" cx="795.2" cy="367.5" r="5.5"/>
		<circle class="st15" cx="800.7" cy="394.3" r="8.9"/>
		<circle class="st15" cx="829.9" cy="401.7" r="6.6"/>
		<circle class="st15" cx="819.1" cy="414.5" r="6.5"/>
		<ellipse class="st15" cx="742" cy="283.7" rx="9.2" ry="8.5"/>
		<circle class="st15" cx="759.5" cy="263" r="8.2"/>
		<circle class="st15" cx="819.1" cy="269.8" r="6.7"/>
		<circle class="st15" cx="735.6" cy="304.9" r="7.3"/>
		<circle class="st15" cx="738.7" cy="331" r="5.9"/>
		<circle class="st15" cx="764.6" cy="324.6" r="5.2"/>
		<circle class="st3" cx="796.2" cy="309.4" r="4.5"/>
		<circle class="st3" cx="838.7" cy="325.9" r="6.4"/>
		<circle class="st3" cx="794" cy="285" r="4.6"/>
		<circle class="st3" cx="768.2" cy="284.4" r="7.9"/>
		<circle class="st3" cx="827" cy="378.3" r="5.3"/>
		<circle class="st3" cx="786.1" cy="362" r="6.9"/>
		<ellipse class="st3" cx="848.3" cy="284.1" rx="6.8" ry="5.4"/>
		<circle class="st3" cx="807.6" cy="272.3" r="6.9"/>
		<circle class="st3" cx="786" cy="265.1" r="6.1"/>
		<circle class="st3" cx="752.2" cy="311.4" r="7"/>
		<circle class="st3" cx="857.9" cy="317.6" r="5.3"/>
		<circle class="st3" cx="782.7" cy="319.8" r="6.6"/>
		<circle class="st3" cx="817.3" cy="400.1" r="5"/>
		<circle class="st3" cx="843.7" cy="348.9" r="6.6"/>
	</g>
	<g>
		<path class="st3" d="M855.9,353h-95.1c-2.7,0-4.7-1.3-4.7-3v-43h3.1v43c0,0.6,0.6,1,1.6,1h95.1c0.9,0,1.6-0.4,1.6-1v-43h3.1v43
			C860.6,351.6,858.5,352.9,855.9,353z"/>
		<circle class="st17" cx="774.6" cy="302.8" r="9.5"/>
		<circle class="st17" cx="810" cy="319.5" r="7.2"/>
		<circle class="st17" cx="828.1" cy="304.3" r="10.9"/>
		<circle class="st17" cx="851.3" cy="330.7" r="6.2"/>
		<circle class="st17" cx="818.7" cy="363.9" r="8.8"/>
		<circle class="st17" cx="792.1" cy="344.9" r="8"/>
		<circle class="st17" cx="789.3" cy="370.7" r="5.2"/>
		<circle class="st17" cx="797.8" cy="325.1" r="5.6"/>
		<circle class="st17" cx="761.4" cy="292.3" r="5.3"/>
		<circle class="st17" cx="812.2" cy="288.2" r="9.5"/>
		<circle class="st17" cx="846.3" cy="294.8" r="5.3"/>
		<circle class="st17" cx="857.4" cy="299.9" r="7.3"/>
		<circle class="st17" cx="800" cy="294.2" r="8.1"/>
		<circle class="st17" cx="786" cy="275.2" r="6.1"/>
		<circle class="st17" cx="834.6" cy="281.7" r="6.5"/>
		<circle class="st17" cx="827.1" cy="345.2" r="9.9"/>
		<circle class="st17" cx="844.2" cy="372.6" r="7.1"/>
		<circle class="st17" cx="815" cy="387.6" r="6.7"/>
		<circle class="st17" cx="871.4" cy="313.3" r="6.2"/>
		<circle class="st17" cx="863.3" cy="289.5" r="8.2"/>
		
			<ellipse transform="matrix(0.414 -0.9103 0.9103 0.414 167.3571 864.4854)" class="st17" cx="755.1" cy="302.3" rx="5.4" ry="5.7"/>
		<circle class="st17" cx="800" cy="367.5" r="5.5"/>
		<circle class="st17" cx="805.5" cy="394.3" r="8.9"/>
		<circle class="st17" cx="834.7" cy="401.8" r="6.6"/>
		<circle class="st17" cx="823.9" cy="414.5" r="6.5"/>
		<ellipse class="st17" cx="746.9" cy="283.8" rx="9.2" ry="8.5"/>
		<circle class="st17" cx="764.3" cy="263.1" r="8.2"/>
		<circle class="st17" cx="823.9" cy="269.8" r="6.7"/>
		<circle class="st17" cx="740.4" cy="305" r="7.3"/>
		<circle class="st17" cx="743.5" cy="331" r="5.9"/>
		<circle class="st17" cx="769.5" cy="324.7" r="5.2"/>
	</g>
</g>
</svg>
