<svg viewBox="0 0 600 450" fill="none" xmlns="http://www.w3.org/2000/svg">
<g id="experience">
<path id="Vector" opacity="0.2" d="M286.54 340.855C405.175 340.855 501.346 267.97 501.346 178.063C501.346 88.1552 405.175 15.2708 286.54 15.2708C167.906 15.2708 71.7345 88.1552 71.7345 178.063C71.7345 267.97 167.906 340.855 286.54 340.855Z" fill="#78D2EE"/>
<path id="Vector_2" d="M416.218 166.945H298.85C295.991 166.945 293.687 164.642 293.687 161.783V112.787C293.687 109.928 295.991 107.625 298.85 107.625H416.218C419.077 107.625 421.38 109.928 421.38 112.787V161.783C421.38 164.642 419.077 166.945 416.218 166.945Z" fill="#FDD17B"/>
<path id="Vector_3" d="M372.624 183H250.376C247.398 183 245 180.67 245 177.779V128.221C245 125.329 247.398 123 250.376 123H372.624C375.601 123 378 125.329 378 128.221V177.779C378 180.751 375.601 183 372.624 183Z" fill="#5B6B7C"/>
<path id="text1" d="M319.893 136.133H257.159V140.104H319.893V136.133Z" fill="#FDD17B"/>
<path id="text2" d="M360.313 145.107H257.159V149.077H360.313V145.107Z" fill="#FDD17B"/>
<path id="text3" d="M360.313 154.001H257.159V157.972H360.313V154.001Z" fill="#FDD17B"/>
<path id="text4" d="M360.313 162.974H257.159V166.945H360.313V162.974Z" fill="#FDD17B"/>
<g id="Group" opacity="0.87">
<path id="Vector_4" opacity="0.87" d="M66.2552 197.2H29.0116C25.5175 197.2 22.6588 194.341 22.6588 190.847V153.604C22.6588 150.11 25.5175 147.251 29.0116 147.251H66.2552C69.7492 147.251 72.6081 150.11 72.6081 153.604V190.847C72.6081 194.341 69.7492 197.2 66.2552 197.2Z" fill="#A8BBDE"/>
<path id="Vector_5" opacity="0.87" d="M122.558 197.2H85.314C81.8198 197.2 78.9608 194.341 78.9608 190.847V153.604C78.9608 150.11 81.8198 147.251 85.314 147.251H122.558C126.052 147.251 128.91 150.11 128.91 153.604V190.847C128.91 194.341 126.052 197.2 122.558 197.2Z" fill="#A8BBDE"/>
<path id="Vector_6" opacity="0.87" d="M122.558 253.503H85.314C81.8198 253.503 78.9608 250.644 78.9608 247.15V209.906C78.9608 206.412 81.8198 203.553 85.314 203.553H122.558C126.052 203.553 128.91 206.412 128.91 209.906V247.15C128.91 250.644 126.052 253.503 122.558 253.503Z" fill="#A8BBDE"/>
<path id="Vector_7" opacity="0.87" d="M66.2552 309.805H29.0116C25.5175 309.805 22.6588 306.946 22.6588 303.452V266.208C22.6588 262.714 25.5175 259.855 29.0116 259.855H66.2552C69.7492 259.855 72.6081 262.714 72.6081 266.208V303.452C72.6081 307.025 69.7492 309.805 66.2552 309.805Z" fill="#A8BBDE"/>
<path id="Vector_8" opacity="0.87" d="M66.0965 366.186H28.8529C25.3588 366.186 22.5 363.328 22.5 359.833V322.59C22.5 319.096 25.3588 316.237 28.8529 316.237H66.0965C69.5906 316.237 72.4493 319.096 72.4493 322.59V359.833C72.4493 363.328 69.5906 366.186 66.0965 366.186Z" fill="#A8BBDE"/>
<path id="Vector_9" opacity="0.87" d="M186.801 365.392H149.557C146.063 365.392 143.204 362.533 143.204 359.039V321.796C143.204 318.301 146.063 315.443 149.557 315.443H186.801C190.294 315.443 193.153 318.301 193.153 321.796V359.039C193.153 362.533 190.294 365.392 186.801 365.392Z" fill="#FDD17B"/>
<path id="Vector_10" opacity="0.87" d="M251.123 285.982H213.88C210.385 285.982 207.526 283.123 207.526 279.628V242.385C207.526 238.891 210.385 236.032 213.88 236.032H251.123C254.617 236.032 257.476 238.891 257.476 242.385V279.628C257.476 283.123 254.617 285.982 251.123 285.982Z" fill="#FDD17B"/>
<path id="Vector_11" opacity="0.87" d="M305.996 352.607H288.923C287.334 352.607 285.984 351.337 285.984 349.669V332.596C285.984 331.007 287.255 329.657 288.923 329.657H305.996C307.584 329.657 308.934 330.928 308.934 332.596V349.669C308.934 351.337 307.663 352.607 305.996 352.607Z" fill="#5B6B7C"/>
<path id="Vector_12" opacity="0.87" d="M334.663 352.607H317.59C316.002 352.607 314.652 351.337 314.652 349.669V332.596C314.652 331.007 315.923 329.657 317.59 329.657H334.663C336.251 329.657 337.601 330.928 337.601 332.596V349.669C337.601 351.337 336.331 352.607 334.663 352.607Z" fill="#5B6B7C"/>
<path id="Vector_13" opacity="0.87" d="M363.409 352.607H346.337C344.748 352.607 343.399 351.337 343.399 349.669V332.596C343.399 331.007 344.669 329.657 346.337 329.657H363.409C364.998 329.657 366.348 330.928 366.348 332.596V349.669C366.268 351.337 364.998 352.607 363.409 352.607Z" fill="#5B6B7C"/>
<path id="Vector_14" opacity="0.87" d="M189.977 285.982H152.734C149.239 285.982 146.38 283.123 146.38 279.628V242.385C146.38 238.891 149.239 236.032 152.734 236.032H189.977C193.471 236.032 196.33 238.891 196.33 242.385V279.628C196.33 283.123 193.551 285.982 189.977 285.982Z" fill="#FDD17B"/>
<path id="Vector_15" opacity="0.87" d="M251.123 363.01H213.88C210.385 363.01 207.526 360.151 207.526 356.657V319.414C207.526 315.919 210.385 313.06 213.88 313.06H251.123C254.617 313.06 257.476 315.919 257.476 319.414V356.657C257.476 360.151 254.697 363.01 251.123 363.01Z" fill="#FDD17B"/>
<path id="Vector_16" opacity="0.87" d="M251.123 432.891H213.88C210.385 432.891 207.526 430.033 207.526 426.538V389.295C207.526 385.801 210.385 382.942 213.88 382.942H251.123C254.617 382.942 257.476 385.801 257.476 389.295V426.538C257.476 430.033 254.617 432.891 251.123 432.891Z" fill="#FDD17B"/>
<g id="Group 2">
<path id="Vector_17" opacity="0.87" fill-rule="evenodd" clip-rule="evenodd" d="M307.024 276.297L307.212 240.131C307.221 238.377 305.806 236.947 304.052 236.938L280.195 236.815C278.441 236.806 277.011 238.22 277.002 239.975L276.815 276.141C276.806 277.895 278.22 279.325 279.975 279.334L303.832 279.458C305.586 279.467 307.015 278.052 307.024 276.297ZM308.006 240.135C308.018 237.942 306.249 236.156 304.056 236.144L280.199 236.021C278.007 236.009 276.22 237.778 276.208 239.97L276.021 276.137C276.009 278.33 277.778 280.116 279.97 280.128L303.828 280.251C306.021 280.263 307.807 278.494 307.819 276.301L308.006 240.135Z" fill="#5B6B7C"/>
<path id="Vector_18" opacity="0.87" d="M285.093 250.205H280.525C280.1 250.205 279.739 249.866 279.739 249.419V244.851C279.739 244.426 280.079 244.065 280.525 244.065H285.093C285.518 244.065 285.879 244.405 285.879 244.851V249.419C285.857 249.866 285.518 250.205 285.093 250.205Z" fill="#5B6B7C"/>
<path id="Vector_19" opacity="0.87" d="M293.715 250.205H289.147C288.722 250.205 288.361 249.866 288.361 249.419V244.851C288.361 244.426 288.701 244.065 289.147 244.065H293.715C294.14 244.065 294.501 244.405 294.501 244.851V249.419C294.48 249.866 294.14 250.205 293.715 250.205Z" fill="#5B6B7C"/>
<path id="Vector_20" opacity="0.87" d="M302.337 250.205H297.769C297.344 250.205 296.983 249.866 296.983 249.419V244.851C296.983 244.426 297.323 244.065 297.769 244.065H302.337C302.762 244.065 303.123 244.405 303.123 244.851V249.419C303.102 249.866 302.762 250.205 302.337 250.205Z" fill="#5B6B7C"/>
<path id="Vector_21" opacity="0.87" d="M285.093 258.912H280.525C280.1 258.912 279.739 258.572 279.739 258.126V253.558C279.739 253.133 280.079 252.772 280.525 252.772H285.093C285.518 252.772 285.879 253.112 285.879 253.558V258.126C285.857 258.572 285.518 258.912 285.093 258.912Z" fill="#5B6B7C"/>
<path id="Vector_22" opacity="0.87" d="M293.715 258.912H289.147C288.722 258.912 288.361 258.572 288.361 258.126V253.558C288.361 253.133 288.701 252.772 289.147 252.772H293.715C294.14 252.772 294.501 253.112 294.501 253.558V258.126C294.48 258.572 294.14 258.912 293.715 258.912Z" fill="#5B6B7C"/>
<path id="Vector_23" opacity="0.87" d="M302.337 258.912H297.769C297.344 258.912 296.983 258.572 296.983 258.126V253.558C296.983 253.133 297.323 252.772 297.769 252.772H302.337C302.762 252.772 303.123 253.112 303.123 253.558V258.126C303.102 258.572 302.762 258.912 302.337 258.912Z" fill="#5B6B7C"/>
<path id="Vector_24" opacity="0.87" d="M284.026 236.082H300.001V239.297C300.001 240.174 299.29 240.885 298.413 240.885H285.614C284.737 240.885 284.026 240.174 284.026 239.297V236.082Z" fill="#5B6B7C"/>
<path id="Vector_25" opacity="0.87" d="M284.026 274.652H300.001V275.93H284.026V274.652Z" fill="#5B6B7C"/>
</g>
</g>
<path id="Vector_26" opacity="0.87" fill-rule="evenodd" clip-rule="evenodd" d="M58.4731 80.3078H22.5795V72.3668H58.4731V80.3078Z" fill="#A8BBDE"/>
<path id="Vector_27" opacity="0.87" fill-rule="evenodd" clip-rule="evenodd" d="M58.4731 88.5668H22.5795V84.5963H58.4731V88.5668Z" fill="#A8BBDE"/>
<path id="Vector_28" opacity="0.87" fill-rule="evenodd" clip-rule="evenodd" d="M85.3935 102.622H22.5795V98.652H85.3935V102.622Z" fill="#A8BBDE"/>
<path id="Vector_29" opacity="0.87" fill-rule="evenodd" clip-rule="evenodd" d="M125.734 111.596H22.5795V107.625H125.734V111.596Z" fill="#A8BBDE"/>
<path id="Vector_30" opacity="0.87" fill-rule="evenodd" clip-rule="evenodd" d="M125.734 120.49H22.5795V116.519H125.734V120.49Z" fill="#A8BBDE"/>
<path id="Vector_31" opacity="0.87" fill-rule="evenodd" clip-rule="evenodd" d="M125.734 129.384H22.5795V125.414H125.734V129.384Z" fill="#A8BBDE"/>
<path id="Vector_32" d="M82.0582 86.343L99.7665 77.211V79.8315L84.837 87.2962V87.375L99.7665 94.8398V97.4603L82.0582 88.4077V86.343Z" fill="#FDD17B"/>
<path id="Vector_33" d="M130.656 88.4078L112.948 97.5398V94.9193L128.036 87.4545V87.3758L112.948 79.911V77.2905L130.656 86.4225V88.4078Z" fill="#FDD17B"/>
<path id="Vector_34" d="M510.161 253.979L527.869 244.846V247.467L512.941 254.932V255.011L527.869 262.476V265.096L510.161 255.965V253.979Z" fill="#FDD17B"/>
<path id="Vector_35" d="M558.761 256.044L541.052 265.176V262.556L556.14 255.091V255.011L541.052 247.547V244.926L558.761 254.059V256.044Z" fill="#FDD17B"/>
<path id="Vector_36" fill-rule="evenodd" clip-rule="evenodd" d="M52.1206 221.444C50.5788 221.444 49.2857 222.737 49.2857 224.279V301.07C49.2857 302.612 50.5788 303.905 52.1206 303.905H93.8902C95.493 303.905 96.7327 302.627 96.8047 301.055V224.279C96.8047 222.737 95.5117 221.444 93.9697 221.444H52.1206ZM47.9672 224.279C47.9672 222.009 49.8506 220.126 52.1206 220.126H93.9697C96.24 220.126 98.1232 222.009 98.1232 224.279V301.083L98.1225 301.097C98.0295 303.33 96.2542 305.223 93.8902 305.223H52.1206C49.8506 305.223 47.9672 303.34 47.9672 301.07V224.279Z" fill="#FDD17B"/>
<path id="Vector_37" d="M64.2707 246.038H56.8854C56.2502 246.038 55.6943 245.483 55.6943 244.847V237.462C55.6943 236.827 56.2502 236.27 56.8854 236.27H64.2707C64.9059 236.27 65.4618 236.827 65.4618 237.462V244.847C65.4618 245.562 64.9853 246.038 64.2707 246.038Z" fill="#FDD17B"/>
<path id="Vector_38" d="M76.6582 246.038H69.3523C68.7171 246.038 68.1612 245.483 68.1612 244.847V237.462C68.1612 236.827 68.7171 236.27 69.3523 236.27H76.7377C77.373 236.27 77.9287 236.827 77.9287 237.462V244.847C77.8492 245.562 77.373 246.038 76.6582 246.038Z" fill="#FDD17B"/>
<path id="Vector_39" d="M89.127 246.038H81.7418C81.1065 246.038 80.5508 245.483 80.5508 244.847V237.462C80.5508 236.827 81.1065 236.27 81.7418 236.27H89.127C89.7623 236.27 90.318 236.827 90.318 237.462V244.847C90.318 245.562 89.7623 246.038 89.127 246.038Z" fill="#FDD17B"/>
<path id="Vector_40" d="M64.2707 263.746H56.8854C56.2502 263.746 55.6943 263.191 55.6943 262.555V255.17C55.6943 254.535 56.2502 253.979 56.8854 253.979H64.2707C64.9059 253.979 65.4618 254.535 65.4618 255.17V262.555C65.4618 263.191 64.9853 263.746 64.2707 263.746Z" fill="#FDD17B"/>
<path id="Vector_41" d="M76.6582 263.746H69.3523C68.7171 263.746 68.1612 263.191 68.1612 262.555V255.17C68.1612 254.535 68.7171 253.979 69.3523 253.979H76.7377C77.373 253.979 77.9287 254.535 77.9287 255.17V262.555C77.8492 263.191 77.373 263.746 76.6582 263.746Z" fill="#FDD17B"/>
<path id="Vector_42" d="M89.127 263.746H81.7418C81.1065 263.746 80.5508 263.191 80.5508 262.555V255.17C80.5508 254.535 81.1065 253.979 81.7418 253.979H89.127C89.7623 253.979 90.318 254.535 90.318 255.17V262.555C90.318 263.191 89.7623 263.746 89.127 263.746Z" fill="#FDD17B"/>
<path id="Vector_43" d="M64.2707 281.376H56.8854C56.2502 281.376 55.6943 280.82 55.6943 280.185V272.8C55.6943 272.164 56.2502 271.608 56.8854 271.608H64.2707C64.9059 271.608 65.4618 272.164 65.4618 272.8V280.185C65.4618 280.9 64.9853 281.376 64.2707 281.376Z" fill="#FDD17B"/>
<path id="Vector_44" d="M76.6582 281.376H69.3523C68.7171 281.376 68.1612 280.82 68.1612 280.185V272.8C68.1612 272.164 68.7171 271.608 69.3523 271.608H76.7377C77.373 271.608 77.9287 272.164 77.9287 272.8V280.185C77.8492 280.9 77.373 281.376 76.6582 281.376Z" fill="#FDD17B"/>
<path id="Vector_45" d="M89.127 281.376H81.7418C81.1065 281.376 80.5508 280.82 80.5508 280.185V272.8C80.5508 272.164 81.1065 271.608 81.7418 271.608H89.127C89.7623 271.608 90.318 272.164 90.318 272.8V280.185C90.318 280.9 89.7623 281.376 89.127 281.376Z" fill="#FDD17B"/>
<path id="Vector_46" d="M64.2707 299.084H56.8854C56.2502 299.084 55.6943 298.529 55.6943 297.893V290.508C55.6943 289.873 56.2502 289.317 56.8854 289.317H64.2707C64.9059 289.317 65.4618 289.873 65.4618 290.508V297.893C65.4618 298.529 64.9853 299.084 64.2707 299.084Z" fill="#FDD17B"/>
<path id="Vector_47" d="M76.6582 299.084H69.3523C68.7171 299.084 68.1612 298.529 68.1612 297.893V290.508C68.1612 289.873 68.7171 289.317 69.3523 289.317H76.7377C77.373 289.317 77.9287 289.873 77.9287 290.508V297.893C77.8492 298.529 77.373 299.084 76.6582 299.084Z" fill="#FDD17B"/>
<path id="Vector_48" d="M89.127 299.084H81.7418C81.1065 299.084 80.5508 298.529 80.5508 297.893V290.508C80.5508 289.873 81.1065 289.317 81.7418 289.317H89.127C89.7623 289.317 90.318 289.873 90.318 290.508V297.893C90.318 298.529 89.7623 299.084 89.127 299.084Z" fill="#FDD17B"/>
<path id="Vector_49" d="M84.2025 225.392H61.8089C60.856 225.392 60.0619 224.597 60.0619 223.644V220.309H85.95V223.644C85.95 224.597 85.1558 225.392 84.2025 225.392Z" fill="#FDD17B"/>
<path id="Vector_50" d="M56.6467 224.279H52.7555C52.2791 224.279 51.882 223.883 51.882 223.406C51.882 222.929 52.2791 222.533 52.7555 222.533H56.6467C57.1232 222.533 57.5202 222.929 57.5202 223.406C57.5202 223.883 57.1232 224.279 56.6467 224.279Z" fill="#FDD17B"/>
<path id="Vector_51" d="M93.8888 224.279H89.9978C89.5215 224.279 89.1248 223.883 89.1248 223.406C89.1248 222.929 89.5215 222.533 89.9978 222.533H93.8888C94.3658 222.533 94.7625 222.929 94.7625 223.406C94.683 223.883 94.3658 224.279 93.8888 224.279Z" fill="#FDD17B"/>
<path id="Vector_52" d="M90.951 232.538H55.4541C54.5012 232.538 53.7865 231.744 53.7865 230.871C53.7865 229.918 54.5806 229.203 55.4541 229.203H90.951C91.9035 229.203 92.6183 229.997 92.6183 230.871C92.6183 231.744 91.9035 232.538 90.951 232.538Z" fill="#FDD17B"/>
<path id="Vector_53" d="M54.8202 415.183H34.7293C32.9029 415.183 31.4734 413.753 31.4734 411.927V391.836C31.4734 390.01 32.9029 388.58 34.7293 388.58H54.8202C56.6466 388.58 58.076 390.01 58.076 391.836V411.927C58.076 413.674 56.6466 415.183 54.8202 415.183Z" fill="#5B6B7C"/>
<path id="Vector_54" d="M88.6492 415.183H68.5584C66.7319 415.183 65.3026 413.753 65.3026 411.927V391.836C65.3026 390.01 66.7319 388.58 68.5584 388.58H88.6492C90.4755 388.58 91.905 390.01 91.905 391.836V411.927C91.905 413.674 90.4755 415.183 88.6492 415.183Z" fill="#5B6B7C"/>
<path id="Vector_55" d="M122.478 415.183H102.387C100.561 415.183 99.1312 413.753 99.1312 411.927V391.836C99.1312 390.01 100.561 388.58 102.387 388.58H122.478C124.304 388.58 125.734 390.01 125.734 391.836V411.927C125.734 413.674 124.304 415.183 122.478 415.183Z" fill="#5B6B7C"/>
<path id="Vector_56" d="M44.8146 419.55H31.553V422.648H44.8146V419.55Z" fill="#5B6B7C"/>
<path id="Vector_57" d="M51.7233 424.871H31.553V427.968H51.7233V424.871Z" fill="#5B6B7C"/>
<path id="Vector_58" d="M78.6435 419.55H65.3818V422.648H78.6435V419.55Z" fill="#5B6B7C"/>
<path id="Vector_59" d="M85.5525 425.029H65.3818V428.127H85.5525V425.029Z" fill="#5B6B7C"/>
<path id="Vector_60" d="M112.472 419.55H99.2108V422.648H112.472V419.55Z" fill="#5B6B7C"/>
<path id="Vector_61" d="M119.381 424.871H99.2108V427.968H119.381V424.871Z" fill="#5B6B7C"/>
<path id="star" d="M297.084 206.834C287.793 208.106 281.441 216.523 279.456 226.29C277.47 216.523 269.688 208.741 260 206.834C267.782 204.849 273.261 199.688 278.502 190C284.061 199.529 288.032 202.943 297.084 206.834Z" fill="#FDD17B"/>
<path id="star_2" d="M343.084 396.834C333.793 398.106 327.441 406.523 325.456 416.29C323.47 406.523 315.688 398.741 306 396.834C313.782 394.849 319.261 389.688 324.502 380C330.061 389.529 334.032 392.943 343.084 396.834Z" fill="#FDD17B"/>
<path id="star_3" d="M168.084 64.8345C158.793 66.1057 152.441 74.523 150.456 84.2903C148.47 74.523 140.688 66.741 131 64.8345C138.782 62.8492 144.261 57.6877 149.502 48C155.061 57.5287 159.032 60.9435 168.084 64.8345Z" fill="#FDD17B"/>
<path id="Vector_62" d="M186.801 380.56H152.734V383.339H186.801V380.56Z" fill="#5B6B7C"/>
<path id="Vector_63" d="M186.801 386.674H152.734V389.454H186.801V386.674Z" fill="#5B6B7C"/>
<path id="Vector_64" d="M186.801 400.571H152.734V403.351H186.801V400.571Z" fill="#5B6B7C"/>
<path id="Vector_65" d="M186.801 406.686H152.734V409.465H186.801V406.686Z" fill="#5B6B7C"/>
<path id="Vector_66" d="M186.801 412.801H152.734V415.58H186.801V412.801Z" fill="#5B6B7C"/>
<path id="Vector_67" d="M53.3907 329.657H33.8557C32.5851 329.657 31.5527 328.625 31.5527 327.355V326.084C31.5527 324.813 32.5851 323.781 33.8557 323.781H53.4701C54.7406 323.781 55.773 324.813 55.773 326.084V327.355C55.773 328.546 54.7406 329.657 53.3907 329.657Z" fill="#5B6B7C"/>
<g id="code">
<path id="Vector_68" d="M93.1755 332.992H68.9551V334.978H93.1755V332.992Z" fill="#5B6B7C"/>
<path id="Vector_69" d="M93.1755 337.281H68.9551V339.266H93.1755V337.281Z" fill="#5B6B7C"/>
<path id="Vector_70" d="M101.513 347.207H77.2935V349.192H101.513V347.207Z" fill="#5B6B7C"/>
<path id="Vector_71" d="M101.513 351.574H77.2935V353.56H101.513V351.574Z" fill="#5B6B7C"/>
<path id="Vector_72" d="M101.513 361.422H77.2935V363.407H101.513V361.422Z" fill="#5B6B7C"/>
<path id="Vector_73" d="M101.513 365.789H77.2935V367.774H101.513V365.789Z" fill="#5B6B7C"/>
<path id="Vector_74" d="M101.513 370.156H77.2935V372.143H101.513V370.156Z" fill="#5B6B7C"/>
<path id="Vector_75" d="M58.0757 333.946C60.6963 333.946 61.0934 332.516 61.0934 331.246C61.0934 330.213 60.9345 329.181 60.7757 328.148C60.6169 327.116 60.4581 326.084 60.4581 325.052C60.4581 321.637 62.6816 320.207 65.7786 320.207H66.5727V322.272H65.9374C63.7933 322.272 62.9992 323.464 62.9992 325.449C62.9992 326.322 63.0786 327.196 63.2375 328.069C63.3962 329.022 63.4757 329.896 63.4757 330.848C63.4757 333.231 62.4434 334.422 60.8552 334.819V334.898C62.5228 335.296 63.5551 336.566 63.4757 338.948C63.4757 339.981 63.3962 340.854 63.2375 341.728C63.0786 342.681 62.9992 343.475 62.9992 344.348C62.9992 346.413 63.8727 347.524 65.9374 347.524H66.5727V349.589H65.7786C62.6816 349.589 60.4581 348.239 60.4581 344.507C60.4581 343.475 60.6169 342.443 60.7757 341.489C60.9345 340.457 61.0934 339.504 61.0934 338.472C61.0934 337.36 60.6963 335.772 58.0757 335.772V333.946Z" fill="#5B6B7C"/>
<path id="Vector_76" d="M112.472 370.793C109.852 370.793 109.454 372.221 109.454 373.492C109.454 374.524 109.613 375.556 109.772 376.589C109.931 377.621 110.09 378.654 110.09 379.686C110.09 383.101 107.867 384.53 104.769 384.53H103.976V382.466H104.611C106.754 382.466 107.549 381.274 107.549 379.289C107.549 378.415 107.469 377.542 107.311 376.669C107.152 375.716 107.072 374.842 107.072 373.889C107.072 371.507 108.104 370.316 109.693 369.919V369.839C108.025 369.442 106.993 368.171 107.072 365.789C107.072 364.757 107.152 363.884 107.311 363.01C107.469 362.057 107.549 361.263 107.549 360.389C107.549 358.325 106.675 357.213 104.611 357.213H103.976V355.148H104.769C107.867 355.148 110.09 356.498 110.09 360.23C110.09 361.263 109.931 362.295 109.772 363.248C109.613 364.28 109.454 365.234 109.454 366.266C109.454 367.378 109.852 368.966 112.472 368.966V370.793Z" fill="#5B6B7C"/>
</g>
<path id="Vector_77" d="M486.103 24.3502H455.614C453.639 24.3502 452.034 22.7455 452.034 20.7705V18.7955C452.034 16.8204 453.639 15.2158 455.614 15.2158H486.103C488.078 15.2158 489.682 16.8204 489.682 18.7955V20.7705C489.682 22.7455 488.078 24.3502 486.103 24.3502Z" fill="#5B6B7C"/>
<g id="code_2">
<path id="Vector_78" d="M547.822 29.5346H510.172V32.6206H547.822V29.5346Z" fill="#5B6B7C"/>
<path id="Vector_79" d="M547.846 36.649L510.203 35.9987L510.149 39.0842L547.793 39.7345L547.846 36.649Z" fill="#5B6B7C"/>
<path id="Vector_80" d="M560.906 51.63H523.258V54.716H560.906V51.63Z" fill="#5B6B7C"/>
<path id="Vector_81" d="M560.906 58.4191H523.258V61.505H560.906V58.4191Z" fill="#5B6B7C"/>
<path id="Vector_82" d="M560.906 73.8488H523.258V76.935H560.906V73.8488Z" fill="#5B6B7C"/>
<path id="Vector_83" d="M560.906 80.5148H523.258V83.6003H560.906V80.5148Z" fill="#5B6B7C"/>
<path id="Vector_84" d="M560.906 87.3038H523.258V90.3893H560.906V87.3038Z" fill="#5B6B7C"/>
<path id="Vector_85" d="M493.262 31.0159C497.335 31.0159 497.953 28.794 497.953 26.819C497.953 25.2143 497.706 23.6096 497.459 22.0049C497.212 20.4002 496.966 18.7955 496.966 17.1908C496.966 11.883 500.422 9.66113 505.236 9.66113H506.471V12.8705H505.483C502.15 12.8705 500.915 14.7221 500.915 17.808C500.915 19.1658 501.039 20.5237 501.286 21.8815C501.532 23.3627 501.656 24.7205 501.656 26.2018C501.656 29.9049 500.051 31.7565 497.583 32.3737V32.4971C500.175 33.1143 501.779 35.0894 501.656 38.7925C501.656 40.3972 501.532 41.755 501.286 43.1128C501.039 44.594 500.915 45.8285 500.915 47.1863C500.915 50.3957 502.273 52.1237 505.483 52.1237H506.471V55.4566H505.236C500.422 55.4566 496.966 53.3582 496.966 47.5565C496.966 45.9518 497.212 44.3471 497.459 42.8659C497.706 41.2613 497.953 39.7799 497.953 38.1753C497.953 36.4472 497.335 33.9784 493.262 33.9784V31.0159Z" fill="#5B6B7C"/>
<path id="Vector_86" d="M577.817 88.4145C573.744 88.4145 573.127 90.6367 573.127 92.6115C573.127 94.2157 573.374 95.8207 573.62 97.4257C573.867 99.03 574.114 100.635 574.114 102.239C574.114 107.548 570.658 109.769 565.844 109.769H564.609V106.56H565.597C568.93 106.56 570.164 104.708 570.164 101.622C570.164 100.264 570.04 98.907 569.794 97.5487C569.547 96.0675 569.423 94.71 569.423 93.2287C569.423 89.5252 571.028 87.6735 573.497 87.057V86.9332C570.905 86.316 569.3 84.3412 569.423 80.6377C569.423 79.0335 569.547 77.6752 569.794 76.3177C570.04 74.8363 570.164 73.6019 570.164 72.2441C570.164 69.0347 568.806 67.3066 565.597 67.3066H564.609V64.0972H565.844C570.658 64.0972 574.114 66.1957 574.114 71.9972C574.114 73.6019 573.867 75.207 573.62 76.6882C573.374 78.2925 573.127 79.7737 573.127 81.3787C573.127 83.1067 573.744 85.5757 577.817 85.5757V88.4145Z" fill="#5B6B7C"/>
</g>
<path id="Vector_87" opacity="0.87" d="M553.44 133.275H462.038C458.465 133.275 455.605 130.416 455.605 126.842C455.605 123.269 458.465 120.41 462.038 120.41H553.44C557.013 120.41 559.872 123.269 559.872 126.842C559.872 130.416 557.013 133.275 553.44 133.275Z" fill="#5B6B7C"/>
<g id="Group_2" opacity="0.87">
<path id="Vector_88" opacity="0.87" d="M514.926 141.216H460.847V169.883H514.926V141.216Z" fill="#5B6B7C"/>
<path id="Vector_89" opacity="0.87" d="M554.631 141.216H522.152V169.883H554.631V141.216Z" fill="#5B6B7C"/>
<path id="Vector_90" opacity="0.87" d="M554.631 177.189H522.152V205.856H554.631V177.189Z" fill="#5B6B7C"/>
<path id="Vector_91" opacity="0.87" d="M480.541 174.489H460.847V177.983H480.541V174.489Z" fill="#5B6B7C"/>
<path id="Vector_92" opacity="0.87" d="M480.541 195.771H460.847V199.265H480.541V195.771Z" fill="#5B6B7C"/>
<path id="Vector_93" opacity="0.87" d="M480.541 201.727H460.847V205.221H480.541V201.727Z" fill="#5B6B7C"/>
<path id="Vector_94" opacity="0.87" d="M514.925 195.771H487.846V199.265H514.925V195.771Z" fill="#5B6B7C"/>
<path id="Vector_95" opacity="0.87" d="M514.925 201.727H487.846V205.221H514.925V201.727Z" fill="#5B6B7C"/>
<path id="Vector_96" opacity="0.87" d="M514.926 182.589H460.847V186.083H514.926V182.589Z" fill="#5B6B7C"/>
<path id="Vector_97" opacity="0.87" d="M554.711 211.494H460.847V214.988H554.711V211.494Z" fill="#5B6B7C"/>
<path id="Vector_98" opacity="0.87" d="M554.711 217.847H460.847V221.342H554.711V217.847Z" fill="#5B6B7C"/>
</g>
<path id="Vector_99" d="M254.062 41.079H192.995V49.0201H254.062V41.079Z" fill="#00A2E8"/>
<path id="Vector_100" d="M213.641 54.3406H192.995V62.2816H213.641V54.3406Z" fill="#00A2E8"/>
<path id="Vector_101" d="M238.577 67.5228H192.995V75.4635H238.577V67.5228Z" fill="#00A2E8"/>
<path id="Vector_102" d="M332.837 41.079H271.77V49.0201H332.837V41.079Z" fill="#00A2E8"/>
<path id="Vector_103" d="M312.587 54.3406H291.94V62.2816H312.587V54.3406Z" fill="#00A2E8"/>
<path id="Vector_104" d="M325.055 67.5228H279.473V75.4635H325.055V67.5228Z" fill="#00A2E8"/>
<path id="Vector_105" d="M403.75 41.079H342.684V49.0201H403.75V41.079Z" fill="#00A2E8"/>
<path id="Vector_106" d="M403.751 54.3406H383.104V62.2816H403.751V54.3406Z" fill="#00A2E8"/>
<path id="Vector_107" d="M403.75 67.5228H358.169V75.4635H403.75V67.5228Z" fill="#00A2E8"/>
<path id="Vector_108" d="M418.203 96.984H184.259C178.542 96.984 173.936 92.3783 173.936 86.661V22.0205C173.936 16.3029 178.542 11.6971 184.259 11.6971H418.203C423.921 11.6971 428.527 16.3029 428.527 22.0205V86.5815C428.527 92.2988 423.921 96.984 418.203 96.984Z" fill="url(#paint0_linear_102_97)"/>
<path id="Vector_109" d="M430.67 214.964H391.873C391.296 214.964 390.834 214.502 390.834 213.925V210.691C390.834 210.114 391.296 209.653 391.873 209.653H430.67C431.248 209.653 431.709 210.114 431.709 210.691V213.925C431.824 214.387 431.248 214.964 430.67 214.964Z" fill="#5B6B7C"/>
<path id="Vector_110" d="M430.67 230.783H391.873C391.296 230.783 390.834 230.321 390.834 229.744V226.51C390.834 225.934 391.296 225.472 391.873 225.472H430.67C431.248 225.472 431.709 225.934 431.709 226.51V229.744C431.824 230.206 431.248 230.783 430.67 230.783Z" fill="#5B6B7C"/>
<path id="Vector_111" d="M430.67 246.602H391.873C391.296 246.602 390.834 246.14 390.834 245.563V242.33C390.834 241.753 391.296 241.291 391.873 241.291H430.67C431.248 241.291 431.709 241.753 431.709 242.33V245.563C431.824 246.025 431.248 246.602 430.67 246.602Z" fill="#5B6B7C"/>
<g id="block">
<path id="Vector_112" opacity="0.87" d="M228.015 225.392H148.763C141.298 225.392 135.263 219.356 135.263 211.892V132.64C135.263 125.175 141.298 119.14 148.763 119.14H228.015C235.48 119.14 241.514 125.175 241.514 132.64V211.892C241.514 219.277 235.48 225.392 228.015 225.392Z" fill="#A8BBDE"/>
<path id="Vector_113" d="M196.568 158.607H148.208V184.256H196.568V158.607Z" fill="#5B6B7C"/>
<path id="Vector_114" d="M232.065 158.607H203V184.256H232.065V158.607Z" fill="#5B6B7C"/>
<path id="Vector_115" d="M232.065 190.768H203V216.418H232.065V190.768Z" fill="#5B6B7C"/>
<path id="Vector_116" d="M165.757 188.306H148.208V191.404H165.757V188.306Z" fill="#5B6B7C"/>
<path id="Vector_117" d="M165.757 207.365H148.208V210.462H165.757V207.365Z" fill="#5B6B7C"/>
<path id="Vector_118" d="M165.757 212.686H148.208V215.782H165.757V212.686Z" fill="#5B6B7C"/>
<path id="Vector_119" d="M196.489 207.365H172.348V210.462H196.489V207.365Z" fill="#5B6B7C"/>
<path id="Vector_120" d="M196.489 212.686H172.348V215.782H196.489V212.686Z" fill="#5B6B7C"/>
<path id="Vector_121" d="M196.568 195.533H148.208V198.63H196.568V195.533Z" fill="#5B6B7C"/>
<path id="Vector_122" d="M147.804 147.251H233.812V151.78H147.804V147.251Z" fill="#5B6B7C"/>
<path id="Vector_123" d="M147.804 137.829H233.812V142.358H147.804V137.829Z" fill="#5B6B7C"/>
<path id="Vector_124" d="M147.804 128.407H233.812V132.937H147.804V128.407Z" fill="#5B6B7C"/>
</g>
<path id="Vector_125" d="M457.531 404.446C457.531 406.235 456.08 407.686 454.291 407.686C452.502 407.686 451.051 406.235 451.051 404.446C451.051 402.657 452.502 401.207 454.291 401.207C456.08 401.207 457.531 402.657 457.531 404.446Z" fill="#FDD17B"/>
<path id="dot2" d="M487.225 404.446C487.225 406.235 485.774 407.686 483.985 407.686C482.196 407.686 480.746 406.235 480.746 404.446C480.746 402.657 482.196 401.207 483.985 401.207C485.774 401.207 487.225 402.657 487.225 404.446Z" fill="#FDD17B"/>
<path id="dot4" d="M516.919 404.446C516.919 406.235 515.468 407.686 513.679 407.686C511.89 407.686 510.44 406.235 510.44 404.446C510.44 402.657 511.89 401.207 513.679 401.207C515.468 401.207 516.919 402.657 516.919 404.446Z" fill="#FDD17B"/>
<path id="dot3" d="M502.072 404.446C502.072 406.235 500.621 407.686 498.832 407.686C497.043 407.686 495.592 406.235 495.592 404.446C495.592 402.657 497.043 401.207 498.832 401.207C500.621 401.207 502.072 402.657 502.072 404.446Z" fill="#FDD17B"/>
<path id="dot1" d="M472.378 404.446C472.378 406.235 470.927 407.686 469.138 407.686C467.349 407.686 465.898 406.235 465.898 404.446C465.898 402.657 467.349 401.207 469.138 401.207C470.927 401.207 472.378 402.657 472.378 404.446Z" fill="#FDD17B"/>
<path id="Vector_126" d="M125.03 306.566C125.03 308.354 123.58 309.805 121.79 309.805C120.002 309.805 118.551 308.354 118.551 306.566C118.551 304.776 120.002 303.326 121.79 303.326C123.58 303.326 125.03 304.776 125.03 306.566Z" fill="#5B6B7C"/>
<path id="Vector_127" d="M154.724 306.566C154.724 308.354 153.274 309.805 151.484 309.805C149.695 309.805 148.245 308.354 148.245 306.566C148.245 304.776 149.695 303.326 151.484 303.326C153.274 303.326 154.724 304.776 154.724 306.566Z" fill="#5B6B7C"/>
<path id="Vector_128" d="M184.418 306.566C184.418 308.354 182.968 309.805 181.178 309.805C179.389 309.805 177.939 308.354 177.939 306.566C177.939 304.776 179.389 303.326 181.178 303.326C182.968 303.326 184.418 304.776 184.418 306.566Z" fill="#5B6B7C"/>
<path id="Vector_129" d="M169.571 306.566C169.571 308.354 168.121 309.805 166.332 309.805C164.542 309.805 163.092 308.354 163.092 306.566C163.092 304.776 164.542 303.326 166.332 303.326C168.121 303.326 169.571 304.776 169.571 306.566Z" fill="#5B6B7C"/>
<path id="Vector_130" d="M139.877 306.565C139.877 308.354 138.427 309.805 136.637 309.805C134.849 309.805 133.398 308.354 133.398 306.565C133.398 304.776 134.849 303.326 136.637 303.326C138.427 303.326 139.877 304.776 139.877 306.565Z" fill="#5B6B7C"/>
<path id="Vector_131" d="M430.495 118.594C428.707 118.594 427.256 117.144 427.256 115.355C427.256 113.566 428.707 112.115 430.495 112.115C432.285 112.115 433.736 113.566 433.736 115.355C433.736 117.144 432.285 118.594 430.495 118.594Z" fill="#5B6B7C"/>
<path id="Vector_132" d="M430.495 148.289C428.707 148.289 427.256 146.839 427.256 145.049C427.256 143.26 428.707 141.809 430.495 141.809C432.285 141.809 433.736 143.26 433.736 145.049C433.736 146.839 432.285 148.289 430.495 148.289Z" fill="#5B6B7C"/>
<path id="Vector_133" d="M430.495 163.136C428.707 163.136 427.256 161.686 427.256 159.896C427.256 158.107 428.707 156.657 430.495 156.657C432.285 156.657 433.736 158.107 433.736 159.896C433.736 161.686 432.285 163.136 430.495 163.136Z" fill="#5B6B7C"/>
<path id="Vector_134" d="M430.495 133.442C428.707 133.442 427.256 131.992 427.256 130.202C427.256 128.413 428.707 126.962 430.495 126.962C432.285 126.962 433.736 128.413 433.736 130.202C433.736 131.992 432.285 133.442 430.495 133.442Z" fill="#5B6B7C"/>
<g id="code_3">
<path id="Vector_135" d="M476.332 302.578C480.62 302.578 481.256 300.196 481.256 298.052C481.256 296.384 481.017 294.637 480.779 292.969C480.541 291.302 480.302 289.634 480.302 287.967C480.302 282.408 483.956 280.026 489.117 280.026H490.387V283.361H489.276C485.702 283.361 484.511 285.267 484.511 288.602C484.511 290.032 484.67 291.461 484.908 292.89C485.147 294.399 485.305 295.828 485.305 297.496C485.385 301.387 483.637 303.293 480.938 304.088V304.246C483.637 304.881 485.385 306.946 485.305 310.838C485.305 312.505 485.147 314.014 484.908 315.443C484.67 316.951 484.511 318.381 484.511 319.81C484.511 323.225 485.941 325.051 489.276 325.051H490.387V328.387H489.117C484.115 328.387 480.302 326.164 480.302 320.049C480.302 318.381 480.541 316.714 480.779 315.046C481.017 313.378 481.256 311.79 481.256 310.123C481.256 308.216 480.62 305.596 476.332 305.596V302.578Z" fill="#FDD17B"/>
<path id="Vector_136" d="M546.213 363.328C541.925 363.328 541.29 365.71 541.29 367.854C541.29 369.521 541.528 371.269 541.766 372.936C542.005 374.604 542.243 376.271 542.243 377.939C542.243 383.498 538.59 385.88 533.428 385.88H532.157V382.545H533.27C536.843 382.545 538.034 380.639 538.034 377.304C538.034 375.874 537.875 374.445 537.637 373.015C537.399 371.506 537.24 370.078 537.24 368.41C537.161 364.519 538.907 362.613 541.607 361.819V361.66C538.907 361.025 537.161 358.96 537.24 355.069C537.24 353.401 537.399 351.892 537.637 350.463C537.875 348.954 538.034 347.524 538.034 346.096C538.034 342.681 536.605 340.854 533.27 340.854H532.157V337.519H533.428C538.431 337.519 542.243 339.742 542.243 345.857C542.243 347.524 542.005 349.192 541.766 350.86C541.528 352.528 541.29 354.116 541.29 355.783C541.29 357.689 541.925 360.31 546.213 360.31V363.328Z" fill="#FDD17B"/>
<path id="Vector_137" opacity="0.87" d="M492.029 290.129H569.807V292.872H492.029V290.129Z" fill="#FDD17B"/>
<path id="Vector_138" opacity="0.87" d="M492.029 295.372H569.807V298.115H492.029V295.372Z" fill="#FDD17B"/>
<path id="Vector_139" opacity="0.87" d="M492.029 300.616H569.807V303.358H492.029V300.616Z" fill="#FDD17B"/>
</g>
<path id="Vector_140" d="M37.7108 7.5H115.489V10.2423H37.7108V7.5Z" fill="#A8BBDE"/>
<path id="Vector_141" d="M37.7108 12.7431H115.489V15.4855H37.7108V12.7431Z" fill="#A8BBDE"/>
<path id="Vector_142" d="M37.7108 17.9863H115.489V20.7286H37.7108V17.9863Z" fill="#A8BBDE"/>
<path id="Vector_143" fill-rule="evenodd" clip-rule="evenodd" d="M122.199 66.6164V30.4496C122.199 28.6953 120.777 27.2732 119.023 27.2732H95.1653C93.411 27.2732 91.989 28.6953 91.989 30.4496V66.6164C91.989 68.3708 93.411 69.7929 95.1653 69.7929H119.023C120.777 69.7929 122.199 68.3708 122.199 66.6164ZM122.993 30.4496C122.993 28.2568 121.216 26.4791 119.023 26.4791H95.1653C92.973 26.4791 91.1948 28.2568 91.1948 30.4496V66.6164C91.1948 68.8093 92.973 70.587 95.1653 70.587H119.023C121.216 70.587 122.993 68.8093 122.993 66.6164V30.4496Z" fill="#A8BBDE"/>
<path id="Vector_144" opacity="0.87" d="M100.174 43.0471H95.6055C95.1803 43.0471 94.8195 42.7071 94.8195 42.2609V37.6928C94.8195 37.2679 95.1593 36.9067 95.6055 36.9067H100.174C100.598 36.9067 100.96 37.2467 100.96 37.6928V42.2609C100.939 42.7071 100.598 43.0471 100.174 43.0471Z" fill="#A8BBDE"/>
<path id="Vector_145" opacity="0.87" d="M108.796 43.0471H104.228C103.802 43.0471 103.442 42.7071 103.442 42.2609V37.6928C103.442 37.2679 103.781 36.9067 104.228 36.9067H108.796C109.22 36.9067 109.582 37.2467 109.582 37.6928V42.2609C109.561 42.7071 109.22 43.0471 108.796 43.0471Z" fill="#A8BBDE"/>
<path id="Vector_146" opacity="0.87" d="M117.418 43.0471H112.849C112.425 43.0471 112.063 42.7071 112.063 42.2609V37.6928C112.063 37.2679 112.403 36.9067 112.849 36.9067H117.418C117.843 36.9067 118.204 37.2467 118.204 37.6928V42.2609C118.183 42.7071 117.843 43.0471 117.418 43.0471Z" fill="#A8BBDE"/>
<path id="Vector_147" opacity="0.87" d="M100.174 51.754H95.6055C95.1803 51.754 94.8195 51.414 94.8195 50.9678V46.3997C94.8195 45.9748 95.1593 45.6136 95.6055 45.6136H100.174C100.598 45.6136 100.96 45.9535 100.96 46.3997V50.9678C100.939 51.414 100.598 51.754 100.174 51.754Z" fill="#A8BBDE"/>
<path id="Vector_148" opacity="0.87" d="M108.796 51.754H104.228C103.802 51.754 103.442 51.414 103.442 50.9678V46.3997C103.442 45.9748 103.781 45.6136 104.228 45.6136H108.796C109.22 45.6136 109.582 45.9535 109.582 46.3997V50.9678C109.561 51.414 109.22 51.754 108.796 51.754Z" fill="#A8BBDE"/>
<path id="Vector_149" opacity="0.87" d="M117.418 51.754H112.849C112.425 51.754 112.063 51.414 112.063 50.9678V46.3997C112.063 45.9748 112.403 45.6136 112.849 45.6136H117.418C117.843 45.6136 118.204 45.9535 118.204 46.3997V50.9678C118.183 51.414 117.843 51.754 117.418 51.754Z" fill="#A8BBDE"/>
<path id="Vector_150" opacity="0.87" d="M100.174 60.4608H95.6055C95.1803 60.4608 94.8195 60.1209 94.8195 59.6746V55.1065C94.8195 54.6816 95.1593 54.3204 95.6055 54.3204H100.174C100.598 54.3204 100.96 54.6604 100.96 55.1065V59.6746C100.939 60.1209 100.598 60.4608 100.174 60.4608Z" fill="#A8BBDE"/>
<path id="Vector_151" opacity="0.87" d="M108.796 60.4608H104.228C103.802 60.4608 103.442 60.1208 103.442 59.6746V55.1065C103.442 54.6816 103.781 54.3204 104.228 54.3204H108.796C109.22 54.3204 109.582 54.6604 109.582 55.1065V59.6746C109.561 60.1208 109.22 60.4608 108.796 60.4608Z" fill="#A8BBDE"/>
<path id="Vector_152" opacity="0.87" d="M117.418 60.4608H112.849C112.425 60.4608 112.063 60.1208 112.063 59.6746V55.1065C112.063 54.6816 112.403 54.3204 112.849 54.3204H117.418C117.843 54.3204 118.204 54.6604 118.204 55.1065V59.6746C118.183 60.1208 117.843 60.4608 117.418 60.4608Z" fill="#A8BBDE"/>
<path id="Vector_153" d="M99.1065 26.4791H115.082V29.6939C115.082 30.571 114.371 31.2821 113.494 31.2821H100.695C99.8175 31.2821 99.1065 30.571 99.1065 29.6939V26.4791Z" fill="#A8BBDE"/>
<path id="Vector_154" d="M99.1065 65.0485H115.082V66.3276H99.1065V65.0485Z" fill="#A8BBDE"/>
<path id="Vector_155" opacity="0.87" d="M495.098 93.5153H486.92C486.159 93.5153 485.512 92.907 485.512 92.1083V83.9303C485.512 83.169 486.121 82.5225 486.92 82.5225H495.098C495.859 82.5225 496.505 83.1315 496.505 83.9303V92.1083C496.467 92.907 495.859 93.5153 495.098 93.5153Z" fill="#5B6B7C"/>
<path id="Vector_156" opacity="0.87" d="M482.258 93.5153H474.08C473.319 93.5153 472.672 92.907 472.672 92.1083V83.9303C472.672 83.169 473.281 82.5225 474.08 82.5225H482.258C483.018 82.5225 483.664 83.1315 483.664 83.9303V92.1083C483.627 92.907 483.018 93.5153 482.258 93.5153Z" fill="#5B6B7C"/>
<path id="Vector_157" opacity="0.87" d="M469.417 93.5153H461.239C460.478 93.5153 459.832 92.907 459.832 92.1083V83.9303C459.832 83.169 460.44 82.5225 461.239 82.5225H469.417C470.177 82.5225 470.824 83.1315 470.824 83.9303V92.1083C470.786 92.907 470.177 93.5153 469.417 93.5153Z" fill="#5B6B7C"/>
<path id="Vector_158" d="M418.203 96.984H184.259C178.542 96.984 173.936 92.3783 173.936 86.661V22.0205C173.936 16.3029 178.542 11.6971 184.259 11.6971H418.203C423.921 11.6971 428.527 16.3029 428.527 22.0205V86.5815C428.527 92.2988 423.921 96.984 418.203 96.984Z" fill="#A8BBDE"/>
<g id="Group_3" opacity="0.87">
<path id="Vector_159" opacity="0.87" d="M255.65 37.9026H194.583V45.8437H255.65V37.9026Z" fill="#5B6B7C"/>
<path id="Vector_160" opacity="0.87" d="M215.23 51.1642H194.583V59.1053H215.23V51.1642Z" fill="#5B6B7C"/>
<path id="Vector_161" opacity="0.87" d="M240.164 64.3464H194.583V72.2875H240.164V64.3464Z" fill="#5B6B7C"/>
<path id="Vector_162" opacity="0.87" d="M334.425 37.9026H273.358V45.8437H334.425V37.9026Z" fill="#5B6B7C"/>
<path id="Vector_163" opacity="0.87" d="M314.176 51.1642H293.529V59.1053H314.176V51.1642Z" fill="#5B6B7C"/>
<path id="Vector_164" opacity="0.87" d="M326.643 64.3464H281.061V72.2875H326.643V64.3464Z" fill="#5B6B7C"/>
<path id="Vector_165" opacity="0.87" d="M405.339 37.9026H344.272V45.8437H405.339V37.9026Z" fill="#5B6B7C"/>
<path id="Vector_166" opacity="0.87" d="M405.339 51.1642H384.692V59.1053H405.339V51.1642Z" fill="#5B6B7C"/>
<path id="Vector_167" opacity="0.87" d="M405.339 64.3464H359.757V72.2875H405.339V64.3464Z" fill="#5B6B7C"/>
</g>
<path id="Vector_168" d="M447.398 354.072C447.023 336.102 442.633 313.97 445.412 306.823H462.435C463.626 312.381 463.66 317.063 462.435 325.37C460.848 336.131 462.008 350.021 462.419 354.96L462.435 355.148C462.621 357.381 461.151 374.954 458.684 392.471C455.885 412.342 451.802 434.523 447.398 431.78C439.111 426.618 447.735 370.216 447.398 354.072Z" fill="#F8BCBF"/>
<path id="Vector_169" d="M375 209C369.913 191.912 367.915 160.832 380.693 148.398C389.2 140.12 397.953 137.018 409.678 138.869C425.427 141.356 430.217 154.237 433.501 169.839C437.532 188.99 421.193 197.915 421.193 217.486C421.193 258.382 454.625 248.786 451.766 255.603L354.884 253.22C354.884 247.265 387.256 245.756 388.634 239.324C392.207 222.647 377.975 218.991 375 209Z" fill="#F8BCBF"/>
<path id="Vector_170" d="M354.487 251.235L379.502 243.691C379.502 243.691 390.619 251.235 405.31 251.235C420.001 251.235 430.721 246.073 430.721 246.073L452.957 254.014C452.957 254.014 464.686 255.846 467.648 266.323C470.87 277.726 468.044 308.808 465.662 308.808C458.95 308.808 451.368 307.617 451.368 307.617L444.221 306.823C444.221 306.823 428.605 338.431 430.721 360.822C432.083 375.224 443.693 387.916 447.001 402.001C449.734 413.639 448.935 430.544 448.935 442.5H352.451C352.451 442.5 352.044 414.751 354.487 402.001C357.538 386.079 368.564 376.207 369.575 360.028C370.897 338.873 358.855 306.823 358.855 306.823C349.723 306.823 342.576 305.234 334.237 300.073C331.061 298.106 333.084 288.367 334.237 281.014C335.697 271.708 337.895 260.669 344.561 254.014C348.4 250.181 350.517 251.235 354.487 251.235Z" fill="#FDD17B"/>
<path id="Vector_171" d="M447.001 282.999C448.203 271.483 452.957 254.014 452.957 254.014C452.957 254.014 464.687 255.846 467.648 266.323C470.871 277.726 468.045 308.808 465.662 308.808C458.95 308.808 451.369 307.616 451.369 307.616L444.221 306.823C444.221 306.823 445.967 292.9 447.001 282.999Z" fill="black" fill-opacity="0.2"/>
<path id="Vector_172" d="M366.866 276.544C365.609 265.656 354.954 251.133 354.954 251.133C350.984 251.133 348.867 250.079 345.028 253.912C338.362 260.567 336.164 271.606 334.704 280.911C333.551 288.264 331.528 298.004 334.704 299.97C343.043 305.132 350.19 306.72 359.322 306.72C359.322 306.72 368.259 288.611 366.866 276.544Z" fill="black" fill-opacity="0.2"/>
<g id="Group 1">
<path id="forearm" d="M339.602 343.689C337.819 340.636 332.449 332.912 332.449 332.912C332.449 332.912 329.021 327.226 320.94 318.919C317.53 315.413 314.907 311.804 312.499 309.601C308.45 305.897 304.774 302.533 302.951 296.176C302.031 292.971 302.15 290.475 302.271 287.931C302.381 285.625 302.493 283.279 301.834 280.329C301.656 279.531 301.47 278.604 301.271 277.616C300.157 272.077 298.652 264.598 296.066 267.076C295.157 267.948 295.41 268.963 295.667 269.997C295.822 270.618 295.978 271.247 295.885 271.854C295.608 273.663 293.462 270.089 290.91 265.838C287.815 260.683 284.123 254.533 282.437 255.771C281.194 256.683 282.695 259.66 284.45 263.14C285.954 266.123 287.645 269.476 287.952 272.214C288.27 275.041 286.565 277.082 284.817 279.176C283.574 280.665 282.308 282.18 281.731 284.023C281.129 285.946 281.247 286.664 282.325 288.368C284.18 291.296 285.873 293.014 287.57 294.734C289.006 296.192 290.446 297.652 291.989 299.853C294.674 303.685 296.16 306.737 297.794 310.095C298.752 312.063 299.76 314.135 301.092 316.531C301.377 317.044 301.659 317.553 301.939 318.058C310.004 332.58 316.171 343.685 326.293 355.134C326.64 355.526 326.984 355.926 327.327 356.325C329.222 358.529 331.129 360.745 333.757 361.949C335.475 362.737 335.509 362.739 336.713 362.822C337.072 362.847 337.534 362.879 338.174 362.941C339.827 363.101 342.23 361.785 344.682 359.126C345.778 353.572 344.856 352.688 339.602 343.689Z" fill="#F8BCBF"/>
<path id="arm" d="M331 348.5C329.919 355.5 330 358.5 333.419 361.761C333.419 361.761 333.435 361.769 333.443 361.773C335.124 362.637 335.158 362.641 336.357 362.779C336.714 362.82 337.174 362.873 337.811 362.964C342.135 363.582 352.105 354.23 354.884 336.759C357.029 323.28 357.283 315.946 357.469 310.563C357.524 308.969 357.573 307.547 357.664 306.186C358.061 300.23 339.796 297.848 336.223 297.848C332.65 297.848 333.443 335.5 333.443 335.5C333.443 335.5 331.309 346.5 331 348.5Z" fill="#F8BCBF"/>
</g>
<path id="Vector_173" d="M354.487 402.001C357.538 386.079 368.565 376.207 369.575 360.028H383.472L400.148 360.822H419.604H430.722C432.083 375.225 443.693 387.916 447.001 402.001C449.734 413.639 448.936 430.544 448.936 442.5H352.451C352.451 442.5 352.044 414.751 354.487 402.001Z" fill="black" fill-opacity="0.2"/>
<path id="Vector_174" d="M394.193 135.295C387.932 137.419 373.29 142.469 369 147.5C362.564 155.048 368.522 157.593 368 167.5C367.411 178.685 377.746 175.713 377.914 186.913C378.087 198.544 378.301 207.487 381.487 218.677C383.949 227.326 394.79 226.467 396.178 235.353C397.412 243.262 397.14 247.601 397.369 255.603C397.679 266.436 404.854 260.784 413.648 267.117C419.002 270.972 408.499 273.313 412.06 285.778C413.648 291.337 437.022 318.158 451.766 307.219C476.383 288.955 454.545 277.837 457.324 264.735C461.642 244.381 451.027 257.53 449.78 241.309C448.948 230.486 452.148 225.046 447.795 215.103C443.348 204.946 450.419 205.54 445.412 195.647C437.957 180.917 445.611 169.281 435.883 155.942C431.644 150.129 435.078 151.813 430.324 146.413C426.458 142.021 423.505 140.561 418.413 137.677C413.15 134.698 399.92 133.353 394.193 135.295Z" fill="#485462" stroke="#485462" stroke-width="0.075"/>
</g>
<defs>
<linearGradient id="paint0_linear_102_97" x1="496.502" y1="54.3189" x2="41.4713" y2="54.3189" gradientUnits="userSpaceOnUse">
<stop stop-color="#00FFD0" stop-opacity="0.2"/>
<stop offset="0.3237" stop-color="#00E6DD" stop-opacity="0.4589"/>
<stop offset="1" stop-color="#00A6FF"/>
</linearGradient>
</defs>
</svg>
