<?xml version="1.0" encoding="utf-8"?>
<!-- Generator: Adobe Illustrator 23.0.3, SVG Export Plug-In . SVG Version: 6.00 Build 0)  -->
<svg version="1.1" id="f9d61bf9-0ef1-4a80-973b-f2b4c4b57253"
	 xmlns="http://www.w3.org/2000/svg" xmlns:xlink="http://www.w3.org/1999/xlink" x="0px" y="0px" viewBox="0 0 816.4 662.2"
	 style="enable-background:new 0 0 816.4 662.2;" xml:space="preserve">
<style type="text/css">
	.st0{fill:#3F3D56;}
	.st1{fill:#68493E;}
	.st2{fill:#F9CCC0;}
	.st3{fill:#FFBF5A;}
	.st4{fill:#2F2E41;}
	.st5{fill:#E6E6E6;}
	.st6{fill:#FFFFFF;}
</style>
<title>certification</title>
<path class="st0" d="M550,608.1c-38,0.1-76-2.4-113.6-7.4c-1.2-0.2-2.5-0.3-3.7-0.5c-9.2-1.3-18.5-2.8-27.5-4.5
	c-40.5-7.4-78.6-18.2-113.4-32.1c-115.8-46.3-188.6-36.5-229.2-20c-44,17.8-60.9,46.9-61.1,47.1L0,589.8
	c0.2-0.3,17.3-29.8,61.8-47.8c26.1-10.6,56.4-15.2,90-13.7c42,1.8,89.3,13.2,140.6,33.7c34.7,13.9,72.7,24.7,113.1,32
	c9,1.6,18.2,3.1,27.4,4.5c1.2,0.2,2.5,0.4,3.7,0.5c102.1,14,200.6,5.6,265.2-4c53.3-7.9,87.6-17.1,87.9-17.2l0.4,1.6
	c-0.3,0.1-34.7,9.3-88.1,17.3C651.7,604.1,600.9,608,550,608.1z"/>
<path class="st0" d="M550.1,130.3c-29.3,0-57.9-1.4-85.5-4.1c-63.3-6.3-121.5-19.9-172.8-40.5C176,39.4,103.2,49.2,62.6,65.7
	c-44,17.8-60.9,46.9-61.1,47.1L0,112c0.2-0.3,17.3-29.8,61.8-47.8c26.1-10.6,56.4-15.2,90-13.7c42,1.8,89.3,13.2,140.6,33.7
	c116,46.4,245,48.2,332.8,41.6c95.2-7.2,163.8-25.6,164.5-25.8l0.4,1.6c-0.7,0.2-69.4,18.6-164.8,25.8
	C599.8,129.3,574.7,130.3,550.1,130.3z"/>
<path class="st1" d="M545.8,8c0,0-32.7-11.7-53.8,35.1s-53.8,233.2-53.8,233.2L457,281c0,0,4.7-38.7,16.4-43.4l-4.7,48.1
	c0,0,140.3,49.1,203.4-4.7l-2.3-22.4c0,0,9.4,8.3,9.4,22.4l7-7c0,0-7-20-28.1-38.7C644.2,223,639.5,70.6,637.8,56
	c-1.2-12.2-6.1-23.7-14-33.1C609.9,6.7,584.4-10.5,545.8,8z"/>
<path class="st2" d="M744.5,272.6c0,0,61.6,52.5,70.7,83.3s-34.4,34.4-34.4,34.4l-94.2,9.1c0,0-1.8,43.5-18.1,48.9
	s-3.3-71.9-3.3-71.9l92.1-25.9l-41.7-43.5L744.5,272.6z"/>
<path class="st2" d="M456.4,327l-7.2,96l-39.9,163c0,0-36.2,74.3-5.4,76.1s29-70.7,29-70.7l58-154l5.4-105.1L456.4,327z"/>
<circle class="st2" cx="557.9" cy="98.7" r="59.8"/>
<path class="st2" d="M530.7,127.7c0,0,21.7,77.9-12.7,97.8s87,34.4,119.6-25.4c0,0-58-19.9-41.7-72.5H530.7z"/>
<path class="st3" d="M489,234.6l-10.9-3.6c0,0-21.7,9.1-21.7,25.4s-3.6,81.5-3.6,81.5l48.9,5.4L489,234.6z"/>
<path class="st4" d="M701.9,595.8c-66.9,9.9-164.3,17.9-265.4,4c0-1,0-2,0-2.9c0-5.7,0.2-11.2,0.6-16.8
	c5.2-68,40.2-124.8,53.8-144.4c0.7-1,1.3-1.9,1.9-2.7c2.2-3.1,3.5-4.7,3.5-4.7s105.1-1.7,159.4,20c2.6,1.1,5,2.7,7.1,4.6
	C683,471.7,694.9,532.4,701.9,595.8z"/>
<path class="st3" d="M662.9,209.2c0,0,23.6-12.7,47.1,14.5l47.1,54.3l-36.2,39.9l-68.8-41.7L662.9,209.2z"/>
<path class="st1" d="M493.3,99.1c21.2-15.3,38.3-33,49.6-53.9c0,0,38.8,43.2,62.6,45.3s2.2-51.8,2.2-51.8l-43.2-10.8l-41,4.3
	l-32.4,21.6L493.3,99.1z"/>
<path class="st3" d="M628.5,196.6c0,0-25.4,40.1-101.4,20.9l-43.2,11.9l-5.7,1.6c0,0,5.4,108.7,19.9,128.6s10.9,30.8,7.2,32.6
	c-3.6,1.8-12.7-1.8-7.2,7.2c5.4,9.1,12.7,3.6,5.4,9.1s-10.9,25.4-10.9,25.4l170.3,21.7c0,0-5.4-70.7,9.1-106.9s18.1-50.7,18.1-50.7
	l-10.9-90.6L628.5,196.6z"/>
<rect x="41.5" y="161.1" class="st5" width="233.1" height="291.4"/>
<rect x="57.8" y="185.6" class="st6" width="50" height="33.3"/>
<rect x="58.2" y="250.6" class="st6" width="193.1" height="11.7"/>
<rect x="58.2" y="281.4" class="st6" width="193.1" height="11.7"/>
<rect x="58.2" y="312.2" class="st6" width="193.1" height="11.7"/>
<rect x="58.2" y="343" class="st6" width="193.1" height="11.7"/>
<rect x="58.2" y="373.8" class="st6" width="193.1" height="11.7"/>
<path class="st3" d="M320.4,452.1c0,25.2-20.5,45.6-45.7,45.6c-25.2,0-45.6-20.5-45.6-45.7c0-25.2,20.5-45.6,45.7-45.6
	c15.6,0,30.2,8,38.5,21.2C318,434.9,320.4,443.4,320.4,452.1z"/>
<path class="st6" d="M313.3,427.6l-45.1,45.1c-2.8-4.4-18.6-24.8-18.6-24.8c2-2,4.2-3.9,6.5-5.7l13.1,17.4l38.9-38.9
	C310,422.9,311.8,425.2,313.3,427.6z"/>
</svg>
