<?xml version="1.0" encoding="utf-8"?>
<!-- Generator: Adobe Illustrator 23.0.3, SVG Export Plug-In . SVG Version: 6.00 Build 0)  -->
<svg version="1.1" id="f61e7f2c-3df8-44b9-b514-d2b672d0e0d5"
	 xmlns="http://www.w3.org/2000/svg" xmlns:xlink="http://www.w3.org/1999/xlink" x="0px" y="0px" viewBox="0 0 269.7 252"
	 style="enable-background:new 0 0 269.7 252;" xml:space="preserve">
<style type="text/css">
	.st0{fill:#2F2E41;}
	.st1{fill:#FFB8B8;}
	.st2{fill:#3F3D56;}
</style>
<title>googlechrome</title>
<g>
	<path class="st0" d="M239.2,107v204.1c0,0.1,0,0.1-0.1,0.1H235c0,0-0.1,0-0.1-0.1l-1.9-85.6c0.2,4.1,0.3,9.5,0,15.7
		c-0.2,3.3-0.9,14.1-4,27.5c-4,17.1-10.3,31.6-16.1,42.5c5.7,0-187.5,0-187.5,0c-0.1,0-0.1,0-0.1-0.1V108.3
		C25.4,47.3,76-2.4,137,0.2C193.9,2.7,239.2,49.5,239.2,107z"/>
	<ellipse class="st1" cx="131.4" cy="137.5" rx="68.9" ry="75.5"/>
	<path class="st1" d="M82.5,165.9c0,0,2.4,105.1-12.1,114.1s96,4,96,4s-20.4-94.6,15.8-118.2L82.5,165.9z"/>
	<path class="st0" d="M63.9,49.3v72.8c9.8,1.2,30.8,2.4,54.3-7.6c28.6-12.2,43.4-33.6,48.5-41.7c1.1,23.8,18.4,42.4,32.7,49.4V49.3
		H63.9z"/>
	<ellipse class="st1" cx="61.6" cy="129.7" rx="5.4" ry="10"/>
	<ellipse class="st1" cx="201.2" cy="129.7" rx="5.4" ry="10"/>
	<rect x="417.4" y="663.6" class="st2" width="189" height="2.3"/>
	<path class="st0" d="M168.4,67.3c-22.4,35.7-31.6,48.9-82.8,59.2c0.8,0.1,1.6,0.3,2.3,0.4c43.2-1.9,69.8-24.7,85.2-58.9L168.4,67.3
		z"/>
	<path class="st0" d="M263,277.1"/>
	<path class="st0" d="M249.9,269.1"/>
</g>
</svg>
