<svg viewBox="0 0 566 424" fill="none" xmlns="http://www.w3.org/2000/svg">
<g id="coding">
<g id="background">
<path id="Vector" d="M406.764 279.049C506.014 280.705 541.767 383.254 549.276 305.456C556.533 230.264 464.682 57.6075 389.647 48.881C323.346 41.1703 341.81 98.1417 266.729 125.035C191.646 151.929 140.547 66.143 90.4577 113.575C50.2593 151.641 99.6453 180.999 48.8522 292.244C24.6471 345.257 126.678 409.267 206.763 394.539C321.438 373.45 307.515 277.393 406.764 279.049Z" fill="#FDD17B"/>
<path id="Vector_2" fill-rule="evenodd" clip-rule="evenodd" d="M247.07 382.187C277.189 368.473 295.046 348.166 311.735 329.188C335.315 302.374 356.562 278.212 406.764 279.049C454.316 279.843 487.293 303.796 509.57 319.979C533.79 337.572 545.364 345.979 549.275 305.456C556.531 230.264 464.681 57.6074 389.645 48.8809C354.12 44.7494 342.932 59.1883 328.648 77.6203C322.462 85.6033 315.695 94.3363 306.118 102.634C376.029 109.106 445.809 135.033 430.578 193.202C417.366 243.655 381.164 257.668 348.252 270.409C344.154 271.995 340.108 273.562 336.164 275.176C302.033 289.145 268.856 302.724 256.724 352.215C253.993 363.352 250.728 373.306 247.07 382.187Z" fill="black" fill-opacity="0.14"/>
</g>
<g id="code-right">
<path id="Vector_3" d="M520.714 17.1077L419.162 41.2684L420.343 46.2342L521.896 22.0735L520.714 17.1077Z" fill="#5B6B7C"/>
<path id="Vector_4" d="M522.813 25.9301L421.261 50.0906L422.442 55.0563L523.994 30.8958L522.813 25.9301Z" fill="#5B6B7C"/>
<path id="Vector_5" d="M482.856 63.4007L427.558 76.5568L428.739 81.5225L484.037 68.3665L482.856 63.4007Z" fill="#5B6B7C"/>
<path id="Vector_6" d="M489.154 89.8677L433.857 103.023L435.039 107.989L490.335 94.8335L489.154 89.8677Z" fill="#5B6B7C"/>
<path id="Vector_7" d="M541.702 105.33L440.154 129.49L441.336 134.455L542.883 110.296L541.702 105.33Z" fill="#5B6B7C"/>
<path id="Vector_8" d="M543.802 114.152L442.255 138.312L443.436 143.278L544.983 119.118L543.802 114.152Z" fill="#5B6B7C"/>
<path id="Vector_9" d="M446.391 26.0789L418.175 32.7919L419.356 37.7577L447.573 31.0446L446.391 26.0789Z" fill="#5B6B7C"/>
<path id="Vector_10" d="M454.787 61.3679L426.571 68.0809L427.752 73.0467L455.969 66.3336L454.787 61.3679Z" fill="#5B6B7C"/>
<path id="Vector_11" d="M461.085 87.8339L432.869 94.5469L434.05 99.5127L462.267 92.7996L461.085 87.8339Z" fill="#5B6B7C"/>
<path id="Vector_12" d="M467.384 114.301L439.167 121.014L440.349 125.979L468.565 119.266L467.384 114.301Z" fill="#5B6B7C"/>
</g>
<g id="code-left">
<path id="Vector_13" d="M71.8381 22.5112L42.9839 19.5673L42.4658 24.6453L71.32 27.5892L71.8381 22.5112Z" fill="#5B6B7C"/>
<path id="Vector_14" d="M139.675 38.5481L42.0632 28.5889L41.5451 33.6669L139.157 43.6261L139.675 38.5481Z" fill="#5B6B7C"/>
<path id="Vector_15" d="M138.755 47.5697L41.1433 37.6105L40.6252 42.6885L138.237 52.6477L138.755 47.5697Z" fill="#5B6B7C"/>
<path id="Vector_16" d="M68.1577 58.5979L39.3035 55.6539L38.7854 60.7319L67.6396 63.6759L68.1577 58.5979Z" fill="#5B6B7C"/>
<path id="Vector_17" d="M106.049 71.5799L38.3828 64.676L37.8647 69.754L105.531 76.6579L106.049 71.5799Z" fill="#5B6B7C"/>
<path id="Vector_18" d="M65.3972 85.6627L36.543 82.7188L36.0249 87.7968L64.8791 90.7407L65.3972 85.6627Z" fill="#5B6B7C"/>
<path id="Vector_19" d="M103.288 98.6442L35.6231 91.7405L35.105 96.8185L102.77 103.722L103.288 98.6442Z" fill="#5B6B7C"/>
<path id="Vector_20" d="M62.6367 112.728L33.7825 109.784L33.2644 114.862L62.1186 117.806L62.6367 112.728Z" fill="#5B6B7C"/>
</g>
<g id="girl">
<path id="Vector_21" fill-rule="evenodd" clip-rule="evenodd" d="M223.66 33.0554L221.043 35.4949L225.177 36.1969L257.118 102.249L206.028 147.923L208.222 151.731L308.641 169.186L356.999 117.038L324.111 49.8099L223.761 33.0751L223.66 33.0554Z" fill="#5B6B7C"/>
<path id="Vector_22" fill-rule="evenodd" clip-rule="evenodd" d="M223.66 33.0554L221.043 35.4949L225.177 36.1969L257.118 102.249L206.028 147.923L208.222 151.731L308.641 169.186L356.999 117.038L324.111 49.8099L223.761 33.0751L223.66 33.0554Z" fill="black" fill-opacity="0.31"/>
<path id="Vector_23" d="M206.265 148.059L252.435 98.8024L352.887 115.554L306.716 164.81L206.265 148.059Z" fill="#5B6B7C"/>
<path id="Vector_24" d="M221.031 35.4719L252.435 98.8032L352.887 115.554L321.482 52.2236L221.031 35.4719Z" fill="#A8BBDE"/>
<path id="Vector_25" d="M227.439 39.3635L255.791 96.5397L346.479 111.663L318.126 54.4871L227.439 39.3635Z" fill="white" fill-opacity="0.58"/>
<path id="Vector_26" fill-rule="evenodd" clip-rule="evenodd" d="M251.626 113.259L248.847 112.791L251.508 110.358L254.287 110.826L251.626 113.259ZM261.87 115.166L256.311 114.23L259.845 111.762L265.404 112.698L261.87 115.166ZM272.662 117.051L267.104 116.115L270.963 113.634L276.521 114.569L272.662 117.051ZM283.779 118.923L278.221 117.987L282.08 115.505L287.638 116.441L283.779 118.923ZM295.437 120.773L289.878 119.837L293.197 117.377L298.755 118.313L295.437 120.773ZM306.771 122.636L301.212 121.7L304.314 119.249L309.873 120.184L306.771 122.636ZM317.564 124.521L312.005 123.585L315.432 121.12L320.99 122.056L317.564 124.521ZM326.681 126.235L323.901 125.767L326.548 122.992L329.328 123.46C333.544 124.17 329.829 126.765 326.681 126.235Z" fill="#373248"/>
<path id="Vector_27" fill-rule="evenodd" clip-rule="evenodd" d="M244.64 120.004L241.86 119.536L244.522 117.103L247.301 117.571L244.64 120.004ZM254.884 121.911L249.325 120.975L252.86 118.507L258.418 119.443L254.884 121.911ZM265.677 123.797L260.118 122.861L263.977 120.379L269.535 121.314L265.677 123.797ZM276.794 125.668L271.235 124.732L275.094 122.25L280.653 123.186L276.794 125.668ZM288.451 127.518L282.893 126.582L286.211 124.122L291.77 125.058L288.451 127.518ZM299.785 129.381L294.226 128.445L297.328 125.994L302.887 126.93L299.785 129.381ZM310.577 131.266L305.019 130.33L308.445 127.866L314.004 128.802L310.577 131.266ZM319.695 132.981L316.915 132.513L319.563 129.738L322.342 130.206C326.559 130.915 322.843 133.511 319.695 132.981Z" fill="#373248"/>
<path id="Vector_28" fill-rule="evenodd" clip-rule="evenodd" d="M237.653 126.75L234.873 126.282L237.534 123.849L240.314 124.317L237.653 126.75ZM247.896 128.657L242.338 127.721L245.872 125.252L251.431 126.188L247.896 128.657ZM258.69 130.542L253.131 129.606L256.989 127.124L262.548 128.06L258.69 130.542ZM269.806 132.414L264.248 131.478L268.107 128.996L273.666 129.932L269.806 132.414ZM281.464 134.263L275.906 133.327L279.224 130.868L284.782 131.803L281.464 134.263ZM292.797 136.126L287.239 135.19L290.341 132.739L295.899 133.675L292.797 136.126ZM303.591 138.011L298.032 137.076L301.458 134.611L307.017 135.547L303.591 138.011ZM312.708 139.726L309.928 139.258L312.576 136.483L315.354 136.95C319.571 137.661 315.856 140.256 312.708 139.726Z" fill="#373248"/>
<path id="Vector_29" fill-rule="evenodd" clip-rule="evenodd" d="M230.667 133.494L227.888 133.027L230.549 130.593L233.328 131.061L230.667 133.494ZM240.911 135.402L235.352 134.466L238.887 131.997L244.445 132.933L240.911 135.402ZM251.703 137.287L246.145 136.351L250.004 133.869L255.562 134.805L251.703 137.287ZM262.821 139.158L257.262 138.223L261.121 135.741L266.679 136.677L262.821 139.158ZM274.479 141.009L268.92 140.073L272.238 137.613L277.797 138.549L274.479 141.009ZM285.812 142.872L280.253 141.936L283.355 139.485L288.914 140.421L285.812 142.872ZM296.604 144.756L291.046 143.82L294.472 141.357L300.031 142.292L296.604 144.756ZM305.721 146.472L302.943 146.004L305.589 143.228L308.369 143.696C312.585 144.406 308.871 147.001 305.721 146.472Z" fill="#373248"/>
<path id="Vector_30" fill-rule="evenodd" clip-rule="evenodd" d="M251.626 114.192L248.847 113.724L251.508 111.291L254.287 111.759L251.626 114.192ZM261.87 116.1L256.311 115.164L259.845 112.695L265.404 113.631L261.87 116.1ZM272.662 117.985L267.104 117.049L270.963 114.567L276.521 115.503L272.662 117.985ZM283.779 119.856L278.221 118.921L282.08 116.439L287.638 117.375L283.779 119.856ZM295.437 121.707L289.878 120.771L293.197 118.311L298.755 119.247L295.437 121.707ZM306.771 123.57L301.212 122.634L304.314 120.183L309.873 121.119L306.771 123.57ZM317.564 125.454L312.005 124.518L315.432 122.054L320.99 122.99L317.564 125.454ZM326.681 127.169L323.901 126.702L326.548 123.926L329.328 124.394C333.544 125.104 329.829 127.699 326.681 127.169Z" fill="#A8BBDE"/>
<path id="Vector_31" fill-rule="evenodd" clip-rule="evenodd" d="M244.64 120.938L241.86 120.47L244.522 118.037L247.301 118.505L244.64 120.938ZM254.884 122.845L249.325 121.91L252.86 119.441L258.418 120.377L254.884 122.845ZM265.677 124.731L260.118 123.795L263.977 121.313L269.535 122.248L265.677 124.731ZM276.794 126.602L271.235 125.666L275.094 123.184L280.653 124.12L276.794 126.602ZM288.451 128.452L282.893 127.516L286.211 125.056L291.77 125.992L288.451 128.452ZM299.785 130.315L294.226 129.379L297.328 126.928L302.887 127.863L299.785 130.315ZM310.577 132.2L305.019 131.264L308.445 128.799L314.004 129.735L310.577 132.2ZM319.695 133.914L316.915 133.446L319.563 130.671L322.342 131.139C326.559 131.849 322.843 134.445 319.695 133.914Z" fill="#A8BBDE"/>
<path id="Vector_32" fill-rule="evenodd" clip-rule="evenodd" d="M237.653 127.683L234.873 127.215L237.534 124.782L240.314 125.25L237.653 127.683ZM247.896 129.591L242.338 128.655L245.872 126.186L251.431 127.122L247.896 129.591ZM258.69 131.475L253.131 130.539L256.989 128.058L262.548 128.994L258.69 131.475ZM269.806 133.347L264.248 132.411L268.107 129.93L273.666 130.866L269.806 133.347ZM281.464 135.197L275.906 134.261L279.224 131.802L284.782 132.737L281.464 135.197ZM292.797 137.06L287.239 136.124L290.341 133.673L295.899 134.609L292.797 137.06ZM303.591 138.945L298.032 138.009L301.458 135.545L307.017 136.481L303.591 138.945ZM312.708 140.66L309.928 140.192L312.576 137.417L315.354 137.885C319.571 138.594 315.856 141.19 312.708 140.66Z" fill="#A8BBDE"/>
<path id="Vector_33" fill-rule="evenodd" clip-rule="evenodd" d="M230.667 134.429L227.888 133.961L230.549 131.528L233.328 131.995L230.667 134.429ZM240.911 136.336L235.352 135.4L238.887 132.931L244.445 133.867L240.911 136.336ZM251.703 138.221L246.145 137.285L250.004 134.803L255.562 135.739L251.703 138.221ZM262.821 140.093L257.262 139.157L261.121 136.675L266.679 137.61L262.821 140.093ZM274.479 141.942L268.92 141.006L272.238 138.546L277.797 139.482L274.479 141.942ZM285.812 143.805L280.253 142.869L283.355 140.418L288.914 141.354L285.812 143.805ZM296.604 145.69L291.046 144.754L294.472 142.29L300.031 143.226L296.604 145.69ZM305.721 147.405L302.943 146.937L305.589 144.162L308.369 144.63C312.585 145.34 308.871 147.936 305.721 147.405Z" fill="#A8BBDE"/>
<path id="Vector_34" fill-rule="evenodd" clip-rule="evenodd" d="M325.143 59.6061L319.322 58.6873C313.929 57.8359 315.998 67.7007 325.778 68.8692C326.913 69.0049 328.362 69.2127 330.037 69.4744L325.143 59.6061ZM333.555 76.571L327.644 75.6379C322.25 74.7867 324.32 84.6514 334.098 85.8199C335.255 85.9579 336.736 86.1709 338.449 86.4394L333.555 76.571ZM341.968 93.5352L335.964 92.5872C330.571 91.736 332.64 101.601 342.42 102.769C343.596 102.91 345.11 103.128 346.861 103.404L341.968 93.5352Z" fill="#040404" fill-opacity="0.33"/>
<path id="Vector_35" fill-rule="evenodd" clip-rule="evenodd" d="M245.771 85.3632L281.493 91.7914L279.208 86.1597L243.174 80.1252L245.771 85.3632ZM239.84 73.4029L276.681 80.0322L274.395 74.4012L237.251 68.1807L239.84 73.4029ZM234.413 62.4589C245.768 64.5514 257.1 66.7932 257.1 66.7932C267.32 68.4072 262.562 57.5465 255.725 56.4673L229.38 52.3086L234.413 62.4589Z" fill="black" fill-opacity="0.14"/>
<path id="Vector_36" d="M202.634 51.9801L250.524 59.54C257.361 60.6191 262.119 71.4792 251.899 69.866C251.899 69.866 218.868 63.3305 209.088 62.1621C199.31 60.9938 197.24 51.1288 202.634 51.9801Z" fill="#FDD17B"/>
<path id="Vector_37" d="M311.355 61.1984L359.246 68.7582C366.082 69.8375 370.841 80.6975 360.621 79.0842C360.621 79.0842 327.589 72.5487 317.81 71.3802C308.031 70.2125 305.961 60.347 311.355 61.1984Z" fill="#A8BBDE"/>
<path id="Vector_38" d="M319.675 78.1482L367.566 85.7082C374.403 86.7874 379.161 97.6482 368.941 96.0342C368.941 96.0342 335.909 89.4987 326.13 88.3302C316.351 87.1624 314.282 77.2969 319.675 78.1482Z" fill="#A8BBDE"/>
<path id="Vector_39" d="M327.997 95.0982L375.888 102.658C382.725 103.737 387.483 114.597 377.262 112.984C377.262 112.984 344.231 106.449 334.452 105.28C324.673 104.112 322.604 94.247 327.997 95.0982Z" fill="#A8BBDE"/>
<path id="Vector_40" d="M225.875 70.2192L269.195 77.4732L271.48 83.105L228.669 75.401L225.875 70.2192Z" fill="#FDD17B"/>
<path id="Vector_41" d="M230.688 81.9777L274.008 89.2325L276.294 94.8635L233.483 87.1595L230.688 81.9777Z" fill="#FDD17B"/>
<path id="Vector_42" opacity="0.9" d="M286.662 24.4737L242.08 17L260.504 57.6714L304.391 65.4057L286.662 24.4737Z" fill="white" fill-opacity="0.54"/>
<path id="Vector_43" d="M253.736 26.1098L281.635 30.8013L283.182 34.4261L255.325 29.4903L253.736 26.1098Z" fill="black" fill-opacity="0.1"/>
<path id="Vector_44" d="M257.165 33.7307L284.909 38.3674L286.377 41.9737L258.756 37.0068L257.165 33.7307Z" fill="black" fill-opacity="0.1"/>
<path id="Vector_45" d="M260.309 40.5311L287.78 45.1466L289.34 48.8002L261.817 43.8187L260.309 40.5311Z" fill="black" fill-opacity="0.1"/>
<path id="Vector_46" d="M263.733 48.1047L291.117 52.7672L292.739 56.2963L265.305 51.5307L263.733 48.1047Z" fill="black" fill-opacity="0.1"/>
<path id="Vector_47" d="M252.148 28.4489L280.047 33.1403L281.595 36.7652L253.737 31.8293L252.148 28.4489Z" fill="#5B6B7C"/>
<path id="Vector_48" d="M255.577 36.0697L283.32 40.7064L284.789 44.3128L257.168 39.3459L255.577 36.0697Z" fill="#5B6B7C"/>
<path id="Vector_49" d="M258.721 42.8702L286.192 47.4855L287.752 51.1392L260.229 46.1577L258.721 42.8702Z" fill="#5B6B7C"/>
<path id="Vector_50" d="M262.146 50.4437L289.528 55.1062L291.151 58.6352L263.717 53.8697L262.146 50.4437Z" fill="#5B6B7C"/>
<path id="Vector_51" d="M346.426 85.3684C346.283 85.2192 346.045 85.2147 345.896 85.3579C345.747 85.5019 345.742 85.7389 345.885 85.8882L346.426 85.3684ZM348.565 88.1359L348.769 88.4502L349.15 88.2034L348.835 87.8757L348.565 88.1359ZM346.226 89.2062C346.052 89.3194 346.002 89.5512 346.115 89.7252C346.228 89.8992 346.46 89.9487 346.634 89.8354L346.226 89.2062ZM345.885 85.8882L348.294 88.3954L348.835 87.8757L346.426 85.3684L345.885 85.8882ZM348.361 87.8209L346.226 89.2062L346.634 89.8354L348.769 88.4502L348.361 87.8209Z" fill="#E8ECFA"/>
<path id="Vector_52" d="M339.531 84.7692C339.661 84.6087 339.897 84.584 340.059 84.7137C340.22 84.8442 340.245 85.0805 340.114 85.2417L339.531 84.7692ZM338.271 86.9225L338.048 87.2247L337.732 86.9915L337.979 86.6862L338.271 86.9225ZM340.498 88.097C340.665 88.2192 340.701 88.454 340.578 88.6212C340.455 88.7877 340.221 88.8237 340.053 88.7007L340.498 88.097ZM340.114 85.2417L338.562 87.1587L337.979 86.6862L339.531 84.7692L340.114 85.2417ZM338.493 86.6202L340.498 88.097L340.053 88.7007L338.048 87.2247L338.493 86.6202Z" fill="#E8ECFA"/>
<path id="Vector_53" fill-rule="evenodd" clip-rule="evenodd" d="M379.366 253.307C365.807 255.121 353.185 257.553 345.811 259.213L341.77 243.643C349.731 241.851 362.989 239.301 377.229 237.396C391.327 235.509 424.202 231.703 436.821 232.575L434.574 248.628C424.184 247.91 393.065 251.473 379.366 253.307Z" fill="#9D7F7F"/>
<path id="Vector_54" fill-rule="evenodd" clip-rule="evenodd" d="M365.869 314.116C355.631 311.246 345.846 309.196 340.046 308.2L342.513 293.836C348.774 294.912 359.051 297.069 369.803 300.083C380.45 303.067 405.07 310.524 413.721 315.342L406.63 328.074C399.506 324.107 376.214 317.016 365.869 314.116Z" fill="#6A5050"/>
<path id="Vector_55" fill-rule="evenodd" clip-rule="evenodd" d="M179.752 195.032C189.133 186.67 198.097 176.253 200.149 165.362C202.193 154.513 203.887 142.326 208.573 132.144C210.087 128.854 211.161 127.08 213.88 124.536C216.915 121.697 221.679 121.856 224.518 124.891C229.674 130.402 224.525 128.798 222.235 133.775C219.426 135.15 217.485 140.355 216.432 143.82C214.329 150.74 213.528 167.697 212.69 172.145C209.781 187.584 200.441 196.757 189.769 206.269C179.109 215.771 166.809 222.631 157.854 225.063C153.842 226.153 149.706 223.785 148.617 219.774C147.527 215.762 149.895 211.626 153.907 210.537C160.068 208.863 170.359 203.405 179.752 195.032Z" fill="#6A5050"/>
<path id="Vector_56" fill-rule="evenodd" clip-rule="evenodd" d="M173.359 224.652C163.773 232.275 149.259 216.009 149.259 216.009C149.259 216.009 157.508 207.23 171.721 198.326C171.721 198.326 178.682 207.785 181.783 214.022C183.03 216.528 175.974 222.572 173.359 224.652Z" fill="#A8BBDE"/>
<path id="Vector_57" fill-rule="evenodd" clip-rule="evenodd" d="M152.352 260.847C161.393 290.842 167.074 311.04 193.911 338.297C194.698 339.096 196.188 340.451 197.112 340.884C208.497 351.333 222.356 358.512 236.671 357.568C256.423 356.265 272.978 342.501 287.238 330.646C296.331 323.085 304.491 316.301 311.952 314.02C327.279 309.333 361.905 323.282 377.303 330.842C394.817 317.745 396.379 286.706 383.619 270.757C375.91 261.122 380.693 251.344 384.869 242.807C387.606 237.213 390.081 232.152 388.611 228.013C356.767 228.188 313.98 230.903 286.379 248.624C286.381 248.62 286.383 248.618 286.383 248.618C286.383 248.618 286.374 248.625 286.355 248.639C283.593 250.414 280.983 252.339 278.55 254.428C263.754 265.012 231.97 285.783 218.493 279.423C217.198 278.813 215.629 277.802 213.897 276.685C208.654 273.307 197.646 271.787 192.519 274.669C199.259 269.823 196.956 265.495 194.634 262.299C193.101 260.187 194.535 251.93 194.995 248.492C199.086 217.966 159.177 204.297 159.177 204.297C159.177 204.297 158.553 209.255 147.183 209.833C145.518 209.918 143.867 208.995 141.969 207.936C139.546 206.583 136.722 205.005 132.957 205.012C142.285 227.45 147.682 245.355 152.352 260.847Z" fill="#5B6B7C"/>
<path id="Vector_58" fill-rule="evenodd" clip-rule="evenodd" d="M194.543 339.042C167.732 311.811 161.406 290.883 152.378 260.934C152.37 260.905 152.361 260.876 152.352 260.847C147.841 245.882 142.651 228.664 133.894 207.284C136.018 206.938 137.745 206.619 138.876 206.338C139.992 206.832 141.012 207.401 141.969 207.936L194.543 339.042ZM141.974 207.939C144.267 210.215 145.673 212.859 147.264 215.852C148.659 218.477 150.198 221.37 152.602 224.52C160.477 234.837 163.089 236.523 165.417 238.026C167.353 239.276 169.094 240.399 173.504 246.256C170.3 250.426 174.61 258.984 177.686 265.091C178.885 267.471 179.896 269.479 180.202 270.709C192.05 318.386 224.285 333.16 252.816 311.568C288.672 284.433 347.82 262.672 380.152 264.208C380.173 264.281 380.194 264.354 380.217 264.428C380.844 266.535 381.933 268.65 383.619 270.757C383.669 270.819 383.718 270.882 383.768 270.945C385.299 272.89 386.621 275.055 387.729 277.381C388.715 279.448 389.532 281.643 390.179 283.924C394.665 299.742 390.954 319.688 378.366 330.009C374.658 328.469 370.647 326.899 366.505 325.412C366.105 325.269 365.704 325.126 365.302 324.984C363.18 324.235 361.028 323.51 358.869 322.824C358.716 322.764 358.563 322.705 358.41 322.647C342.148 316.384 322.489 310.798 311.952 314.02C304.491 316.301 296.331 323.085 287.238 330.646C287.172 330.7 287.107 330.754 287.042 330.808C282.799 334.335 277.924 338.34 272.652 342.261C261.936 350.1 250.035 356.686 236.67 357.568C222.356 358.512 208.497 351.333 197.112 340.884C196.188 340.451 195.33 339.841 194.543 339.042" fill="black" fill-opacity="0.21"/>
<path id="Vector_59" d="M304.207 122.287C300.818 115.017 296.317 115.859 296.317 115.859L285.211 117.948C285.211 117.948 278.093 124.715 266.202 136.674C267.42 138.567 268.425 142.197 273.522 145.68C274.8 146.553 281.987 151.297 294.727 138.379C309.26 136.962 309.1 132.783 304.207 122.287Z" fill="#9D7F7F"/>
<path id="Vector_60" d="M243.612 112.851C241.029 107.31 237.6 107.952 237.6 107.952L229.137 109.545C229.137 109.545 220.386 113.88 212.007 126.341C212.934 127.784 216.345 128.023 220.23 130.677C221.203 131.343 224.645 131.069 234.354 121.225C245.427 120.144 247.34 120.849 243.612 112.851Z" fill="#6A5050"/>
<path id="Vector_61" d="M232.896 133.275C229.911 135.29 223.251 134.466 220.294 133.803L220.557 126.423L229.691 121.035C229.908 122.643 230.731 125.947 232.291 126.308C234.24 126.758 236.843 125.525 238.799 126.645C240.755 127.767 236.626 130.758 232.896 133.275Z" fill="#6A5050"/>
<path id="Vector_62" d="M412.862 315.312L402.776 325.47C399.906 327.737 400.008 324.494 397.92 325.644C395.832 326.793 402.482 336.689 405.602 340.218C408.721 343.746 415.832 335.467 421.972 329.12C428.111 322.773 442.152 317.895 445.001 315.812C447.85 313.728 453.509 306.876 453.854 303.94C454.199 301.005 448.91 298.523 444.356 302.452C440.713 305.596 423.017 310.676 412.862 315.312Z" fill="#FDD17B"/>
<path id="Vector_63" d="M408.192 312.741C409.839 313.563 410.315 317.438 410.347 319.273L412.419 320.952L427.341 318.897C428.075 316.228 428.755 311.178 425.601 312.334C422.448 313.491 412.863 310.419 408.465 308.739C407.688 309.73 406.545 311.919 408.192 312.741Z" fill="#FDD17B"/>
<path id="Vector_64" d="M420.742 305.867L420.742 305.867C420.054 305.901 419.603 306.477 419.734 307.153L421.27 315.059C421.401 315.735 422.065 316.256 422.754 316.223L422.754 316.223C423.442 316.189 423.893 315.613 423.762 314.937L422.226 307.031C422.095 306.354 421.431 305.834 420.742 305.867Z" fill="#5B6B7C"/>
<path id="Vector_65" d="M428.179 303.404L428.179 303.404C427.491 303.438 427.04 304.014 427.171 304.69L428.707 312.596C428.838 313.272 429.502 313.793 430.19 313.76L430.19 313.76C430.879 313.726 431.33 313.15 431.199 312.474L429.663 304.568C429.532 303.891 428.867 303.371 428.179 303.404Z" fill="#5B6B7C"/>
<path id="Vector_66" d="M435.801 233.576L428.746 247.072C426.542 250.279 425.625 246.951 423.865 248.776C422.104 250.602 431.975 258.567 436.256 261.172C440.537 263.777 445.159 253.126 449.403 244.744C453.647 236.362 467.297 225.702 469.537 222.688C471.777 219.675 474.459 212.217 473.886 209.125C473.313 206.033 467.157 205.175 463.765 210.6C461.051 214.941 444.664 225.67 435.801 233.576Z" fill="#FDD17B"/>
<path id="Vector_67" d="M430.246 232.432C432.177 232.749 433.881 236.538 434.49 238.393L437.125 239.448L451.644 232.667C451.55 229.723 450.654 224.376 447.812 226.543C444.971 228.71 434.264 228.603 429.265 228.279C428.787 229.531 428.314 232.114 430.246 232.432Z" fill="#FDD17B"/>
<path id="Vector_68" d="M441.163 258.972C439.688 260.553 435.212 259.863 433.157 259.321C433.653 261.419 434.334 261.45 439.772 264.5C445.211 267.549 452.481 253.892 453.182 250.742C453.882 247.592 460.538 235.814 465.098 234.737C469.658 233.661 477.709 215.968 476.992 211.709C476.418 208.301 472.847 206.865 471.212 206.738C479.16 215.934 456.636 235.194 453.241 237.537C449.846 239.879 443.007 256.995 441.163 258.972Z" fill="#5B6B7C"/>
<path id="Vector_69" d="M442.712 222.215C442.366 221.569 441.527 221.248 440.838 221.499C440.149 221.75 439.872 222.477 440.218 223.123L444.265 230.675C444.611 231.321 445.451 231.642 446.139 231.391C446.828 231.14 447.106 230.413 446.76 229.767L442.712 222.215Z" fill="#5B6B7C"/>
<path id="Vector_70" d="M449.497 217.372C449.151 216.726 448.312 216.406 447.623 216.656C446.935 216.907 446.657 217.634 447.003 218.28L451.05 225.832C451.397 226.478 452.236 226.799 452.924 226.548C453.613 226.297 453.891 225.57 453.545 224.924L449.497 217.372Z" fill="#5B6B7C"/>
<path id="Vector_71" d="M203.995 268.821C207.143 262.844 219.577 250.074 225.03 257.231C230.484 264.387 212.591 264.846 203.995 268.821Z" stroke="#78D2EE" stroke-width="3"/>
<path id="Vector_72" d="M158.664 143.639L154.481 156.537C154.481 156.537 150.346 156.914 148.489 155.341C147.256 154.296 146.027 152.014 146.027 152.014C145.837 154.662 148.553 159.57 152.136 164.21C156.614 170.009 157.191 191.332 150.979 197.342C144.767 203.352 137.175 231.918 154.512 254.024C171.85 276.13 168.155 310.778 159.394 327.058C152.377 340.097 131.735 309.667 109.635 312.592C98.8788 314.016 65.5225 345.482 56.0176 334.042C46.3501 322.407 72.5298 270.909 61.5078 263.463C7.24708 226.801 103.797 195.079 107.673 177.244C113.685 149.592 116.904 143.673 131.503 138.072C144.228 133.191 152.415 139.569 158.664 143.639Z" fill="#5B6B7C"/>
<path id="Vector_73" d="M156.857 149.211L154.482 156.537C154.482 156.537 150.346 156.914 148.489 155.341C147.256 154.296 146.027 152.014 146.027 152.014C145.837 154.662 148.553 159.57 152.136 164.21C156.614 170.009 157.191 191.332 150.979 197.342C148.76 199.489 146.365 204.513 144.993 211.092C152.551 210.18 159.267 211.303 159.267 211.303C159.267 211.303 159.89 192.173 156.764 182.19C161.66 180.828 167.286 178.497 168.743 174.786C169.869 171.919 168.303 166.407 164.966 160.431C165.673 159.4 166.046 158.31 165.466 157.478C164.959 156.75 163.361 155.813 161.44 154.887C160.055 152.951 158.517 151.035 156.857 149.211Z" fill="#9D7F7F"/>
<path id="Vector_74" fill-rule="evenodd" clip-rule="evenodd" d="M202.41 269.704C201.852 269.679 201.318 269.655 201.363 268.673C201.376 268.37 201.431 268.069 201.481 267.789C201.61 267.075 201.714 266.498 201.059 266.38C200.377 266.258 189.966 273.335 183.231 277.911C180.951 279.461 179.092 280.725 178.176 281.324C176.6 282.356 166.553 286.813 166.553 286.813L166.704 295.062H166.85C171.813 293.016 177.459 290.687 181.871 288.096C187.932 284.537 203.9 271.908 203.574 270.439C203.421 269.749 202.905 269.726 202.41 269.704Z" fill="#A8BBDE"/>
<path id="Vector_75" fill-rule="evenodd" clip-rule="evenodd" d="M204.397 206.87C224.076 195.794 243.026 171.51 254.364 151.809C259.58 142.744 267.981 131.666 280.989 129.693L283.554 146.606C278.998 147.297 271.659 148.17 266.716 156.759C250.458 185.011 237.345 213.327 207.477 230.138C189.494 240.258 175.626 244.19 163.265 244.434C158.542 244.527 154.638 240.773 154.545 236.05C154.452 231.327 157.175 224.728 161.898 224.635C170.178 224.472 187.481 216.391 204.397 206.87Z" fill="#9D7F7F"/>
<path id="Vector_76" d="M200.732 269.249C199.824 263.764 201.626 249.21 208.76 251.19C215.893 253.17 204.391 262.368 200.732 269.249Z" stroke="#78D2EE" stroke-width="3"/>
<path id="Vector_77" d="M211.557 275.907C207.875 270.474 200.865 270.378 198.981 271.101L199.237 272.686C202.205 273.648 207.815 273.627 209.547 276.95C211.98 281.615 217.443 290.246 219.66 290.366C221.316 290.455 222.363 288.893 223.011 287.756C221.82 288.237 216.16 282.699 211.557 275.907Z" fill="#A8BBDE"/>
<path id="Vector_78" d="M214.126 270.36C206.922 265.837 202.005 269.019 200.799 270.951L200.592 272.151C206.836 267.988 209.86 269.752 212.64 272.499C214.902 274.734 226.161 274.652 229.385 272.89C230.546 272.256 230.466 271.079 230.393 269.614C229.644 270.858 219.155 273.516 214.126 270.36Z" fill="#A8BBDE"/>
<path id="Vector_79" fill-rule="evenodd" clip-rule="evenodd" d="M159.459 242.359C164.292 244.611 170.144 243.639 179.122 242.451C176.035 249.807 165.897 252.365 158.67 250.293C153.288 248.749 148.8 241.221 148.368 236.223C147.951 231.387 147.483 227.233 152.088 223.42C158.654 217.983 167.196 220.298 168.993 223.023C161.779 224.635 154.188 226.173 154.981 235.347C155.148 237.276 156.15 240.817 159.459 242.359Z" fill="#5B6B7C"/>
<path id="Vector_80" d="M117.572 332.978C110.753 325.255 98.779 306.367 105.439 292.59C113.765 275.37 126.921 262.601 119.484 251.284" stroke="#78D2EE" stroke-width="0.75" stroke-linecap="round"/>
<path id="Vector_81" d="M72.3903 198.724C81.394 198.381 100.887 195.462 106.831 186.531C114.261 175.368 102.564 144.678 132.665 138.15" stroke="#78D2EE" stroke-width="0.75" stroke-linecap="round"/>
</g>
</g>
</svg>
